<svg xmlns="http://www.w3.org/2000/svg" width="409.185" height="337.506" viewBox="0 0 409.185 337.506">
  <g id="Group_339" data-name="Group 339" transform="translate(3620.591 18441.582)">
    <g id="Ellipse_20" data-name="Ellipse 20" transform="translate(-3573.15 -18441.582)" fill="#fdae86" stroke="#cf8662" stroke-width="5">
      <circle cx="165.044" cy="165.044" r="165.044" stroke="none"/>
      <circle cx="165.044" cy="165.044" r="162.544" fill="none"/>
    </g>
    <path id="Path_4952" data-name="Path 4952" d="M312.715,163.068c-1.026-11.752.406-4.984,10.638-10.136,5.189-2.613,19.1-5.944,27.413-4.547-.485,6.084,3.029,5.429-16.692,10.162-3.837.921-8.61.584-12.407,1.807C315.52,162.335,324.064,163.194,312.715,163.068Zm-6.2-20.836c-.464-11.852,3.021-4.265,14.52-10.167l31.477-8.051c4.257-2-2.118-1.076,5.79-2.354l32.134-6.125c8.588.546,2.862-.184,5.475,2.035-2.757,6.75-3.458,1.03-13.087,5.974-6.652,3.415-27.2,5.95-30.836,7.652-4.662,2.183,3.257.473-4.842,2.3-3.421.77-11.262,1.155-17.625,3.647l-2.957,1.6c-.26.117-.57.278-.848.388-.3.118-.63.233-.949.342Zm-25.594-25.548c-4.12.236-3.859-1.354-4.176,4.56-.38,7.091,1.762,5.69,2.567,7.342,3.991,8.194,4.036,25.2,8.814,35.562,3.917,8.5,3.5,17.921,6.281,26.2l4.722,14.7c2.131,8.358-.436,5.441,3.8,14.705,1.738,3.8,3.02,11.345,3.721,16.371a33.389,33.389,0,0,0,1.544,6.942,34.368,34.368,0,0,0,1.335,3.768l1.276,2.3c3.69,7.34,4.179,21.237,7.01,27.4,3.913,8.521,3.492,20.065,6.991,27.909l1.272,2.112c2.669,5.907,2.966,16.78,5.911,22.606.108.214.323.487.426.711,4.531,9.92.81,23.908,9.957,25.063.349,3.762,1.68,4.374,6.495,2.687.262-.092.566-.291.816-.4s.512-.341.746-.462.491-.355.723-.477l6.669-2.218c7.5-1.826,17.855-2.332,24.855-5.949,5.257-2.716,12.11-1.347,21.351-5.986,2.132-1.07.043-.461,3.886-1.812,3.1-1.091,1.846.089,4.983-1.679-6.481-2.413-15.111-2.312-21.364-3.388-6.158-1.061-4.132.446-4.582-3.882-4.161-.489-3.449-.333-5.128-2.693-1.073-1.508-.282.433-1.045-2.613-.988-3.943-.315-8.132-.183-12.188-5.977.457-8.548,1.711-13.7,2.632l-6.751,1.85c-2.169,1.033,1.134,1.621-6.892,1.738-.28-8.051-.723-7.12,12.483-8.731l11.194-3.429c4.657-2.27,5.036.858,6.37-11.332.307-2.809.234-2.878,1.051-4.877l4.611-24.984c-8.53.428-19.654,2.75-28.15,5.319-7.85,2.374-8.542,4.316-18.855,4.032.455-4.727-.754-4.2,3.339-6.062,5.623-2.561,17.124-3.513,20.628-5.273.162-.081-.418-.265,2.483-1.142a43.588,43.588,0,0,1,4.634-.8c7.372-1.174,12.594-2.431,18.121-6.917l1.041-14.4c-13.322,1.18-9.535,2.043-13.6,3.7-4.445,1.807-11.37,1.9-14.585,2.926l-5.814,2.658c-5.39,2.387-14.852,4.156-21.905,3.763l.164-4.82c2.6-1.754,10.547-3.352,14.463-3.95,6.17-.941,8.456-2.865,13.805-4.544,7.393-2.321,15.488-1.514,23.291-5.221,2.778-1.319-1.5-2.027,7.2-2.373.515-7.627,1.911-9.462,2.458-17.168-13.187,1.037-13.005,4.5-24.488,6.3-11.384,1.788-28.86,8.1-33.341,8.671-11.475,1.45-8.419.126-10.185-1.474,1.955-5.21,14.837-5.43,24.851-9.85,9.261-4.088,24.324-3.577,35.688-8.816l10.767-3.785,1.028-14.7-28.339,7.029c-7.477,1.814-22.266,3.137-29.028,6.585-4.519,2.3-12.209,4.181-20.665,3.621l.325-5.5c6.437-.559,28.828-4.618,35.3-7.82,6.018-2.976,14.256-2.435,20.576-5.592,7.186-3.59,15.18-4.457,22.9-5.433,3-10.21,1.9-17.2,3.912-27.267,1.512-7.552-.173.931,2.047-4.629,3.473-8.7,1.666-25.828,5.1-33.61.244-.552,3.791-2.4,1.952-13.789-.544-3.366-4.406-9.762-6.659-25.145a44.613,44.613,0,0,0-16.173,2.409l-2.329,1.261c-6.757,3.441-24.088,5.75-31.4,6.937-7.271,1.179-6.411,2.469-16.2,4.745L333.948,99.5c-.214.108-.482.329-.7.437-6.3,3.167-15.174,3.659-21.669,5.364l-11.846,3.262c-.208.1-.484.309-.7.405l-3.741,1.117c-3.54.743-6,1.257-8.083,1.772-6.792,1.679-5.882-.509-6.293,4.826Z" transform="translate(-3844.397 -18486.969)" fill="#fefefe" fill-rule="evenodd"/>
    <path id="Path_4965" data-name="Path 4965" d="M285.247,117.7l18.251-2.762c.319-.109.649-.224.949-.342.277-.109.588-.271.848-.388l2.957-1.6c6.363-2.493,14.2-2.877,17.625-3.647,8.1-1.823.18-.113,4.842-2.3,3.636-1.7,24.184-4.237,30.836-7.652,9.629-4.944,10.33.776,13.087-5.974-2.613-2.219,3.113-1.489-5.475-2.035l-32.134,6.125c-7.908,1.277-1.533.354-5.79,2.354l-31.477,8.051C288.268,113.438,284.782,105.851,285.247,117.7Z" transform="translate(-3823.13 -18462.439)" fill="#d9dfe6" fill-rule="evenodd"/>
    <path id="Path_4966" data-name="Path 4966" d="M313.369,169.2l-.523,5.865c4.249-1.823,2.562-1.15,4.913-4.954,3.581-5.792.506-6.783,7.188-17.071,2.475-3.812,3.754-6.925,5.932-10.1,2.9-4.221.381-.505,3.481-3.9l10.032-9.942c1.434-1.5-1.2.414,2.552-2.186l4.347-3.053c2.892-2.368,2.875-2.95,10.531-5.631l6.409-2.034c13.774-4.829,10.248-3,12.067-7.621l-7.688.626a30,30,0,0,0-7.332,1.406c-12.426,4.091-1.7,3.981-12.043,5.641-2.732.438-6.743.082-9.588-.017.489,7.98.155,7.077-4.23,10.554a14.734,14.734,0,0,0-2.6,2.344l-5.123,4.75c-3.595,3.129-4.566,6.915-8.689,12.354l-4.328,6.875a29.356,29.356,0,0,0-5.305,16.091Z" transform="translate(-3754.01 -18418.504)" fill="#b9beca" fill-rule="evenodd"/>
    <path id="Path_4967" data-name="Path 4967" d="M287.188,115.309c11.349.126,2.805-.733,8.951-2.714,3.8-1.224,8.57-.886,12.407-1.807,19.721-4.733,16.207-4.078,16.692-10.162-8.312-1.4-22.224,1.934-27.413,4.547-10.232,5.152-11.664-1.616-10.638,10.136Z" transform="translate(-3818.871 -18439.209)" fill="#dce0e8" fill-rule="evenodd"/>
    <path id="Path_4968" data-name="Path 4968" d="M362.466,107.29c.083-8.452.569-1.527-1.854-5.406L359,99.7c-12.7-1.126-21.936-3.764-34.92-3.6.06,7.043-3.776,6.882,16.431,8.991C348.912,105.97,352.914,108.013,362.466,107.29Z" transform="translate(-3726.537 -18449.715)" fill="#dee1e7" fill-rule="evenodd"/>
    <g id="Group_336" data-name="Group 336" transform="matrix(0.966, -0.259, 0.259, 0.966, 5698.351, -1854.527)">
      <path id="Path_5030" data-name="Path 5030" d="M-105.643,115.917a5.49,5.49,0,0,0-3.674-1.892l-38.288.181c-4.2-.357-4.581-1.123-7.839-3.485-.655-.475-3.575-3.165-5.219-9.074-1.068-3.834-1.068-10.4-1.068-14.377,0-14.493.974-26.9,0-35.346-40.033-2.158-82.772-.038-123.179-.244-23.325-.118-16.617,4.683-16.617,58.734l-.021,175.256c-.07,10.56-.489,7.592,0,12.845s-.193,6.3,1.956,8.166a9.945,9.945,0,0,0,6.848,2.818c33.859,1.824,174.195.406,187.257-.311-.2-.6,2.79-.123,2.774-3.826-.028-6.435-.519-42.351-.6-48.142-.49-33.355-1.911-111.093-.676-136.217.168-3.423-.317-3.342-1.648-5.086Z" transform="translate(-4377.698 -18407.355)" fill="#fafafc" stroke="#cf8662" stroke-width="5" fill-rule="evenodd"/>
      <path id="Path_5027" data-name="Path 5027" d="M7.454,0h84.7a3.57,3.57,0,0,1,3.457,3.673,3.57,3.57,0,0,1-3.457,3.673H7.454A3.57,3.57,0,0,1,4,3.673,3.57,3.57,0,0,1,7.454,0Z" transform="translate(-4656.542 -18325.486)" fill="#cf8662"/>
      <path id="Path_5031" data-name="Path 5031" d="M7.67,0H97.66a3.673,3.673,0,1,1,0,7.346H7.67A3.673,3.673,0,0,1,7.67,0Z" transform="translate(-4658.261 -18253.861)" fill="#cf8662"/>
      <path id="Path_5034" data-name="Path 5034" d="M7.67,0H97.66a3.673,3.673,0,1,1,0,7.346H7.67A3.673,3.673,0,0,1,7.67,0Z" transform="translate(-4657.194 -18230.799)" fill="#cf8662"/>
      <path id="Path_5035" data-name="Path 5035" d="M7.67,0H97.66a3.673,3.673,0,1,1,0,7.346H7.67A3.673,3.673,0,0,1,7.67,0Z" transform="translate(-4658.058 -18208.254)" fill="#cf8662"/>
      <path id="Path_5036" data-name="Path 5036" d="M7.67,0H97.66a3.673,3.673,0,1,1,0,7.346H7.67A3.673,3.673,0,0,1,7.67,0Z" transform="translate(-4657.698 -18186.416)" fill="#cf8662"/>
      <path id="Path_5026" data-name="Path 5026" d="M6.1,0H39.69a3.458,3.458,0,0,1,3.193,3.673A3.458,3.458,0,0,1,39.69,7.346H6.1A3.458,3.458,0,0,1,2.9,3.673,3.458,3.458,0,0,1,6.1,0Z" transform="translate(-4655.297 -18303.279)" fill="#cf8662"/>
      <path id="Path_5028" data-name="Path 5028" d="M-10.52-42.7,46.1,22.461c2.029,0,0,.1,0,2.131s-18.816-2.131-20.844-2.131L-4.109,21.4c-2.029,0-9.129-22.312-9.129-24.341S-12.548-42.7-10.52-42.7Z" transform="translate(-4527.974 -18315.193)" fill="#cf8662"/>
      <path id="Path_5029" data-name="Path 5029" d="M6.578,0H33.956a3.673,3.673,0,0,1,3.673,3.673c0,2.029,7.646,3.673,5.618,3.673H6.578A3.673,3.673,0,0,1,6.578,0Z" transform="translate(-4656.452 -18139.803)" fill="#cf8662"/>
    </g>
    <g id="Group_345" data-name="Group 345" transform="matrix(0.966, 0.259, -0.259, 0.966, -3627.321, 535.569)">
      <path id="Path_5030-2" data-name="Path 5030" d="M-116.218,115.917a5.081,5.081,0,0,0-3.477-1.892l-36.231.181c-3.974-.357-4.335-1.123-7.417-3.485-.62-.475-3.383-3.165-4.939-9.074-1.01-3.834-1.01-10.4-1.01-14.377,0-14.493.922-26.9,0-35.346-37.881-2.158-78.324-.038-116.56-.244-22.072-.118-15.724,4.683-15.724,58.734l-.02,175.256c-.066,10.56-.463,7.592,0,12.845s-.183,6.3,1.851,8.166a9.16,9.16,0,0,0,6.48,2.818c32.039,1.824,164.833.406,177.193-.311-.192-.6,2.64-.123,2.625-3.826-.027-6.435-.491-42.351-.572-48.142-.464-33.355-1.808-111.093-.639-136.217.159-3.423-.3-3.342-1.559-5.086Z" transform="translate(-4377.698 -18407.355)" fill="#fafafc" stroke="#cf8662" stroke-width="5" fill-rule="evenodd"/>
      <path id="Path_5027-2" data-name="Path 5027" d="M6.78,0h68.2c1.537,0,2.783,1.644,2.783,3.673s-1.246,3.673-2.783,3.673H6.78C5.243,7.346,4,5.7,4,3.673S5.243,0,6.78,0Z" transform="translate(-4647.779 -18323.693)" fill="#cf8662"/>
      <path id="Path_5031-2" data-name="Path 5031" d="M7.67,0H97.66a3.673,3.673,0,1,1,0,7.346H7.67A3.673,3.673,0,0,1,7.67,0Z" transform="translate(-4649.499 -18252.068)" fill="#cf8662"/>
      <path id="Path_5034-2" data-name="Path 5034" d="M8.289,0H113.456c2.371,0,4.292,1.644,4.292,3.673s-1.922,3.673-4.292,3.673H8.289C5.919,7.346,4,5.7,4,3.673S5.919,0,8.289,0Z" transform="translate(-4648.431 -18229.006)" fill="#cf8662"/>
      <path id="Path_5035-2" data-name="Path 5035" d="M8.16,0h102a3.941,3.941,0,0,1,4.163,3.673,3.941,3.941,0,0,1-4.163,3.673H8.16A3.941,3.941,0,0,1,4,3.673,3.941,3.941,0,0,1,8.16,0Z" transform="translate(-4649.295 -18206.461)" fill="#cf8662"/>
      <path id="Path_5036-2" data-name="Path 5036" d="M7.67,0H97.66a3.673,3.673,0,1,1,0,7.346H7.67A3.673,3.673,0,0,1,7.67,0Z" transform="translate(-4648.935 -18184.623)" fill="#cf8662"/>
      <path id="Path_5044" data-name="Path 5044" d="M7.67,0H97.66a3.673,3.673,0,1,1,0,7.346H7.67A3.673,3.673,0,0,1,7.67,0Z" transform="translate(-4649.522 -18137.879)" fill="#cf8662"/>
      <path id="Path_5026-2" data-name="Path 5026" d="M6.1,0H39.69a3.458,3.458,0,0,1,3.193,3.673A3.458,3.458,0,0,1,39.69,7.346H6.1A3.458,3.458,0,0,1,2.9,3.673,3.458,3.458,0,0,1,6.1,0Z" transform="translate(-4646.534 -18301.486)" fill="#cf8662"/>
      <path id="Path_5028-2" data-name="Path 5028" d="M-10.52-42.7,44.355,23.383c1.075,3.505-4.929-2.06-4.929-.032s-12.141-.891-14.17-.891L-4.109,21.4c-2.029,0-9.129-22.312-9.129-24.341S-12.548-42.7-10.52-42.7Z" transform="translate(-4535.076 -18315.131)" fill="#cf8662"/>
    </g>
    <g id="Group_337" data-name="Group 337" transform="translate(1644.769 128.249)">
      <path id="Path_5018" data-name="Path 5018" d="M.226,18.306C2.517,35,31.818,33.69,29.328,13.1,27.037-5.862-2.882-4.332.226,18.306Z" transform="matrix(0.966, 0.259, -0.259, 0.966, -5257.65, -18387.168)" fill="#fdae86" fill-rule="evenodd"/>
      <path id="Path_5017" data-name="Path 5017" d="M.1,8.252C1.135,15.776,14.343,15.187,13.221,5.9,12.188-2.642-1.3-1.953.1,8.252Z" transform="matrix(0.966, 0.259, -0.259, 0.966, -5213.012, -18525.508)" fill="#fdae86" fill-rule="evenodd"/>
      <path id="Path_5016" data-name="Path 5016" d="M6.192,2.348C1.956,5.26-2.657,8.873,1.855,17.013a11.716,11.716,0,0,0,16.761,3.7C31.233,12.141,19.154-6.56,6.192,2.348Z" transform="matrix(0.966, 0.259, -0.259, 0.966, -4919.697, -18539.613)" fill="#fdae86" fill-rule="evenodd"/>
      <path id="Path_5015" data-name="Path 5015" d="M3.995,1.515c-2.733,1.878-5.709,4.209-2.8,9.46a7.558,7.558,0,0,0,10.813,2.39C20.149,7.832,12.356-4.232,3.995,1.515Z" transform="matrix(0.966, 0.259, -0.259, 0.966, -4902.125, -18567.174)" fill="#fdae86" fill-rule="evenodd"/>
    </g>
  </g>
</svg>
