<svg xmlns="http://www.w3.org/2000/svg" width="386.619" height="387.152" viewBox="0 0 386.619 387.152">
  <g id="Group_349" data-name="Group 349" transform="translate(9079.052 21854.359)">
    <g id="Ellipse_31" data-name="Ellipse 31" transform="translate(-9024.23 -21797.207)" fill="#ffc1a2" stroke="#cf8662" stroke-width="7">
      <circle cx="165" cy="165" r="165" stroke="none"/>
      <circle cx="165" cy="165" r="161.5" fill="none"/>
    </g>
    <path id="Path_5052" data-name="Path 5052" d="M.226,18.306C2.517,35,31.818,33.69,29.328,13.1,27.037-5.862-2.882-4.332.226,18.306Z" transform="matrix(0.966, 0.259, -0.259, 0.966, -9071.342, -21647.191)" fill="#fdae86" fill-rule="evenodd"/>
    <path id="Path_5051" data-name="Path 5051" d="M.1,8.252C1.135,15.776,14.343,15.187,13.221,5.9,12.188-2.642-1.3-1.953.1,8.252Z" transform="matrix(0.966, 0.259, -0.259, 0.966, -9014.47, -21786.113)" fill="#fdae86" fill-rule="evenodd"/>
    <path id="Path_5046" data-name="Path 5046" d="M6.192,2.348C1.956,5.26-2.657,8.873,1.855,17.013a11.716,11.716,0,0,0,16.761,3.7C31.233,12.141,19.154-6.56,6.192,2.348Z" transform="matrix(0.966, 0.259, -0.259, 0.966, -8741.34, -21796.715)" fill="#fdae86" fill-rule="evenodd"/>
    <path id="Path_5047" data-name="Path 5047" d="M3.995,1.515c-2.733,1.878-5.709,4.209-2.8,9.46a7.558,7.558,0,0,0,10.813,2.39C20.149,7.832,12.356-4.232,3.995,1.515Z" transform="matrix(0.966, 0.259, -0.259, 0.966, -8719.443, -21831.586)" fill="#fdae86" fill-rule="evenodd"/>
    <path id="Path_5048" data-name="Path 5048" d="M-77.291,97.887c4.671-.261,3.138-13.225,3.138-25.065s.588-22.584-3.138-22.3-3.089,10.456-3.089,22.3S-81.962,98.148-77.291,97.887Z" transform="translate(-8781.901 -21904.879)" fill="#cf8662" fill-rule="evenodd"/>
    <path id="Path_5049" data-name="Path 5049" d="M-68.65,91.365c4.02,1.406,5.235-7.269,10.382-16.048,2.845-7.516,9.52-20.13,6.818-20.85s-6.062,5.572-10.925,15.916S-72.67,89.959-68.65,91.365Z" transform="translate(-8760.05 -21895.023)" fill="#cf8662" fill-rule="evenodd"/>
    <path id="Path_5050" data-name="Path 5050" d="M-79.458,80.014c2.647-1.078-1.518-6.592-4.9-11.275s-5.883-8.922-8.633-7.457.739,5.815,4.123,10.5,6.765,9.313,9.412,8.234Z" transform="translate(-8813.167 -21878.086)" fill="#cf8662" fill-rule="evenodd"/>
    <g id="Path_5045" data-name="Path 5045" transform="translate(-8858.283 -21853.031)" fill="#fcfcfc" fill-rule="evenodd">
      <path d="M -1.862433910369873 371.5370483398438 L -3.27534294128418 367.91162109375 C -21.63938903808594 320.7915344238281 -62.33161544799805 297.0996398925781 -98.23361206054688 276.1966857910156 C -110.2934799194336 269.1751708984375 -121.6844787597656 262.5430908203125 -131.5595703125 255.4225311279297 C -136.8992919921875 251.5722198486328 -141.3580322265625 247.8961791992188 -145.1905212402344 244.1843109130859 C -149.5081634521484 240.0025787353516 -152.9611663818359 235.8503112792969 -155.7468414306641 231.4901733398438 C -162.5798492431641 220.7952270507813 -166.9071197509766 209.0113067626953 -168.6084289550781 196.4658966064453 C -169.3948364257813 190.6668090820313 -169.6114349365234 184.6974029541016 -169.2521667480469 178.7235412597656 C -168.9081115722656 173.0037689208984 -168.0335235595703 167.2234954833984 -166.6526184082031 161.5432586669922 C -165.3199310302734 156.0612182617188 -163.5084381103516 150.6398620605469 -161.2685241699219 145.4297637939453 C -159.0816192626953 140.3429870605469 -156.4820709228516 135.4463043212891 -153.5421142578125 130.8758087158203 C -150.6293029785156 126.3474960327148 -147.3837127685547 122.1410369873047 -143.8955688476563 118.3733139038086 C -140.3811187744141 114.5771255493164 -136.6236572265625 111.2299957275391 -132.7275238037109 108.4248123168945 C -124.1706619262695 102.2639007568359 -114.4599304199219 97.58826446533203 -103.8651580810547 94.52780914306641 C -99.09943389892578 93.15113067626953 -94.15575408935547 92.10781097412109 -89.17143249511719 91.42681121826172 C -84.488525390625 90.78704071044922 -79.74361419677734 90.46263122558594 -75.06852722167969 90.46263122558594 C -68.80466461181641 90.46263122558594 -62.78584289550781 91.03295135498047 -57.17929840087891 92.15772247314453 C -51.74970626831055 93.24703979492188 -47.00384140014648 94.79299163818359 -43.07347869873047 96.75272369384766 C -33.57798004150391 101.4872207641602 -27.12197875976563 105.4826278686523 -21.4862060546875 110.1123123168945 C -16.46990585327148 114.2331085205078 -11.90055370330811 119.0019607543945 -6.638418197631836 125.6549911499023 C -4.385413646697998 122.2438201904297 -1.862835168838501 119.0080490112305 0.8928842544555664 115.9972229003906 C 4.198066234588623 112.3860855102539 7.92915678024292 109.0006256103516 11.98256587982178 105.9348983764648 C 20.11442947387695 99.78444671630859 28.19392967224121 95.90031433105469 33.56388473510742 93.51376342773438 C 33.9498405456543 93.34221649169922 34.35761260986328 93.15962982177734 34.78670120239258 92.96753692626953 C 38.90570068359375 91.12331390380859 45.1303825378418 88.33626556396484 52.82288360595703 86.03017425537109 C 62.04479217529297 83.26554107666016 71.21170043945313 81.86372375488281 80.06893157958984 81.86372375488281 C 87.07365417480469 81.86372375488281 94.03429412841797 82.73903656005859 100.7574768066406 84.46530914306641 C 108.3685684204102 86.41954040527344 115.8626556396484 89.51248931884766 123.031608581543 93.65817260742188 C 132.8564300537109 99.33976745605469 141.13525390625 107.1870803833008 147.6381530761719 116.982177734375 C 150.6899261474609 121.5789947509766 153.3405151367188 126.6093139648438 155.5162048339844 131.9334411621094 C 157.6278381347656 137.1008148193359 159.3139801025391 142.5970764160156 160.5277862548828 148.2696685791016 C 161.7168426513672 153.8264923095703 162.4623413085938 159.5963134765625 162.74365234375 165.4188537597656 C 163.0222473144531 171.1860809326172 162.8473815917969 177.0418548583984 162.2238311767578 182.823486328125 C 161.5988006591797 188.6187133789063 160.5192413330078 194.3744506835938 159.0150604248047 199.9307708740234 C 157.4896545410156 205.5655364990234 155.5167083740234 211.0344543457031 153.1510162353516 216.1856231689453 C 147.8772430419922 227.6691741943359 142.5381622314453 237.3339996337891 136.3486633300781 246.6014404296875 C 129.1092529296875 257.4408874511719 120.4138412475586 268.1452331542969 109.7656097412109 279.3260498046875 C 98.21538543701172 291.4539489746094 84.20719909667969 304.3318481445313 66.94061279296875 318.6956176757813 C 48.90683746337891 333.6975708007813 27.43047523498535 350.2335815429688 1.284384250640869 369.2485046386719 L -1.862433910369873 371.5370483398438 Z" stroke="none"/>
      <path d="M 80.06892395019531 84.86370849609375 C 59.18601989746094 84.86322021484375 42.56880950927734 92.79464721679688 34.78223037719727 96.25518798828125 C 22.29687881469727 101.8040466308594 5.011730194091797 111.3476257324219 -6.370120525360107 130.9101257324219 C -18.46387100219727 114.904296875 -26.98342132568359 108.1275939941406 -44.4121208190918 99.4375 C -61.84082412719727 90.74734497070313 -100.91796875 89.21871948242188 -130.974609375 110.859375 C -161.0312652587891 132.5 -180.8711242675781 186.5937347412109 -153.2187652587891 229.8749847412109 C -125.5664215087891 273.15625 -31.65232086181641 286.837890625 -0.4801206588745117 366.8222351074219 C 105.0859298706055 290.048828125 131.8476257324219 255.3847808837891 150.4247741699219 214.93359375 C 169.0019226074219 174.4824523925781 160.5976257324219 118.8476257324219 121.52978515625 96.25518798828125 C 106.8268737792969 87.75271606445313 92.67060089111328 84.864013671875 80.06892395019531 84.86370849609375 M 80.06697845458984 78.86367797851563 L 80.06713104248047 78.86367797851563 C 95.57768249511719 78.8641357421875 110.5382766723633 82.96792602539063 124.5334320068359 91.06112670898438 C 168.156982421875 116.2880859375 174.7688293457031 176.3018493652344 155.8772735595703 217.4376373291016 C 136.1697845458984 260.3501892089844 107.122428894043 295.9867553710938 3.048830032348633 371.6746826171875 L -3.244720458984375 376.2517395019531 L -6.070570468902588 369.0009765625 C -24.05422019958496 322.8569946289063 -64.26547241210938 299.4451293945313 -99.74311828613281 278.7892456054688 C -123.7721176147461 264.7990417480469 -146.4684753417969 251.5846862792969 -158.2749176025391 233.1053314208984 C -186.6379699707031 188.7117919921875 -168.4991149902344 130.4834289550781 -134.4804229736328 105.9901733398438 C -117.8863220214844 94.04248046875 -96.78672027587891 87.46258544921875 -75.06851959228516 87.46258544921875 C -62.30347061157227 87.46258544921875 -50.1538200378418 89.87014770507813 -41.73481750488281 94.06793212890625 C -25.7285041809082 102.0487976074219 -16.82434844970703 108.6516723632813 -6.821562767028809 120.6629333496094 C 5.236543655395508 104.2314758300781 20.98958969116211 95.81918334960938 32.34547805786133 90.77227783203125 L 33.56113052368164 90.22927856445313 C 41.80062866210938 86.54013061523438 58.94573211669922 78.86367797851563 80.06697845458984 78.86367797851563 Z" stroke="none" fill="#cf8662"/>
    </g>
    <g id="Group_348" data-name="Group 348" transform="translate(-14.283 -41.46)">
      <path id="Path_5010" data-name="Path 5010" d="M-254.826,121.887c7.512,1.995,10.829,1.87,17.205-2.218s5.89-11.87,5.707-14.309c-.154-2.631-7.042.452-13.2,0-.149-3.517,2.609-9.343,0-10.6-3.643-1.8-11.372,1.783-11.372,1.783s-7.044,4.045-8.426,12.156c-.577,3.338,2.573,11.189,10.084,13.184Z" transform="translate(-8557.034 -21718.428)" fill="#cf8662" fill-rule="evenodd"/>
      <path id="Path_5056" data-name="Path 5056" d="M-254.826,121.887c7.512,1.995,10.829,1.87,17.205-2.218s5.89-11.87,5.707-14.309c-.154-2.631-7.042.452-13.2,0-.149-3.517,2.609-9.343,0-10.6-3.643-1.8-11.372,1.783-11.372,1.783s-7.044,4.045-8.426,12.156c-.577,3.338,2.573,11.189,10.084,13.184Z" transform="translate(-8641.982 -21718.428)" fill="#cf8662" fill-rule="evenodd"/>
      <path id="Path_5013" data-name="Path 5013" d="M-262.2,94.623c2.795,5.936,1.238.867,6.658,4.582a42.447,42.447,0,0,0,16.374,6.551,16.7,16.7,0,0,0,5.663,0,4.173,4.173,0,0,0,2.736-2.381c-11.666-1.85-20.5-10.189-20.542-10.216C-262.762,86.336-261.812,94.315-262.2,94.623Z" transform="translate(-8535.006 -21735.162)" fill="#cf8662" fill-rule="evenodd"/>
      <path id="Path_5060" data-name="Path 5060" d="M-230.763,94.623c-2.795,5.936-1.238.867-6.658,4.582a42.448,42.448,0,0,1-16.374,6.551,16.7,16.7,0,0,1-5.663,0,4.173,4.173,0,0,1-2.736-2.381c11.666-1.85,20.5-10.189,20.542-10.216C-230.2,86.336-231.146,94.315-230.763,94.623Z" transform="translate(-8668.006 -21736.969)" fill="#cf8662" fill-rule="evenodd"/>
      <path id="Path_5053" data-name="Path 5053" d="M30.621,7.63C45.811,7.376,60.757,20.3,60.757,16.5S48.595-.035,30.621,0,0,12.71,0,16.5,15.431,7.884,30.621,7.63Z" transform="translate(-8813.799 -21535.748) rotate(180)" fill="#cf8662"/>
      <path id="Path_5054" data-name="Path 5054" d="M10.358,2.365C14,2.365,20.266-1.64,20.266.773S14,7.221,10.358,7.221,0,3.187,0,.773,6.72,2.365,10.358,2.365Z" transform="translate(-8819.401 -21560.574) rotate(39)" fill="#cf8662"/>
      <path id="Path_5055" data-name="Path 5055" d="M7.255,1.775c2.548,0,6.94-3,6.94-1.194S9.8,5.417,7.255,5.417,0,2.391,0,.58,4.707,1.775,7.255,1.775Z" transform="matrix(0.695, -0.719, 0.719, 0.695, -8884.191, -21547.492)" fill="#cf8662"/>
    </g>
    <path id="Path_5058" data-name="Path 5058" d="M.043,3.517c.44,3.207,6.07,2.956,5.592-1A2.846,2.846,0,1,0,.043,3.517Z" transform="matrix(0.966, 0.259, -0.259, 0.966, -8759.798, -21634.182)" fill="#fdae86" fill-rule="evenodd"/>
    <path id="Path_5062" data-name="Path 5062" d="M.043,3.517c.44,3.207,6.07,2.956,5.592-1A2.846,2.846,0,1,0,.043,3.517Z" transform="matrix(0.966, 0.259, -0.259, 0.966, -8951.003, -21634.309)" fill="#fdae86" fill-rule="evenodd"/>
    <path id="Path_5061" data-name="Path 5061" d="M.043,3.517c.44,3.207,6.07,2.956,5.592-1A2.846,2.846,0,1,0,.043,3.517Z" transform="matrix(0.966, 0.259, -0.259, 0.966, -8767.798, -21644.182)" fill="#fdae86" fill-rule="evenodd"/>
    <path id="Path_5063" data-name="Path 5063" d="M.043,3.517c.44,3.207,6.07,2.956,5.592-1A2.846,2.846,0,1,0,.043,3.517Z" transform="matrix(0.966, 0.259, -0.259, 0.966, -8959.003, -21644.309)" fill="#fdae86" fill-rule="evenodd"/>
    <path id="Path_5059" data-name="Path 5059" d="M.043,3.517c.44,3.207,6.07,2.956,5.592-1A2.846,2.846,0,1,0,.043,3.517Z" transform="matrix(0.966, 0.259, -0.259, 0.966, -8775.798, -21634.055)" fill="#fdae86" fill-rule="evenodd"/>
    <path id="Path_5064" data-name="Path 5064" d="M.043,3.517c.44,3.207,6.07,2.956,5.592-1A2.846,2.846,0,1,0,.043,3.517Z" transform="matrix(0.966, 0.259, -0.259, 0.966, -8967.003, -21634.184)" fill="#fdae86" fill-rule="evenodd"/>
  </g>
</svg>
