<svg xmlns="http://www.w3.org/2000/svg" width="384.822" height="387.154" viewBox="0 0 384.822 387.154">
  <g id="Group_325" data-name="Group 325" transform="translate(5034.822 18513.154)">
    <circle id="Ellipse_16" data-name="Ellipse 16" cx="165" cy="165" r="165" transform="translate(-4980 -18456)" fill="#cf8662"/>
    <path id="Path_5018" data-name="Path 5018" d="M.226,18.306C2.517,35,31.818,33.69,29.328,13.1,27.037-5.862-2.882-4.332.226,18.306Z" transform="matrix(0.966, 0.259, -0.259, 0.966, -5027.112, -18305.986)" fill="#fdae86" fill-rule="evenodd"/>
    <path id="Path_5017" data-name="Path 5017" d="M.1,8.252C1.135,15.776,14.343,15.187,13.221,5.9,12.188-2.642-1.3-1.953.1,8.252Z" transform="matrix(0.966, 0.259, -0.259, 0.966, -4970.24, -18444.908)" fill="#fdae86" fill-rule="evenodd"/>
    <path id="Path_5016" data-name="Path 5016" d="M6.192,2.348C1.956,5.26-2.657,8.873,1.855,17.013a11.716,11.716,0,0,0,16.761,3.7C31.233,12.141,19.154-6.56,6.192,2.348Z" transform="matrix(0.966, 0.259, -0.259, 0.966, -4697.11, -18455.508)" fill="#fdae86" fill-rule="evenodd"/>
    <path id="Path_5015" data-name="Path 5015" d="M3.995,1.515c-2.733,1.878-5.709,4.209-2.8,9.46a7.558,7.558,0,0,0,10.813,2.39C20.149,7.832,12.356-4.232,3.995,1.515Z" transform="matrix(0.966, 0.259, -0.259, 0.966, -4675.213, -18490.379)" fill="#fdae86" fill-rule="evenodd"/>
    <path id="Path_4997" data-name="Path 4997" d="M-77.291,97.887c4.671-.261,3.138-13.225,3.138-25.065s.588-22.584-3.138-22.3-3.089,10.456-3.089,22.3S-81.962,98.148-77.291,97.887Z" transform="translate(-4737.671 -18563.674)" fill="#cf8662" fill-rule="evenodd"/>
    <path id="Path_4998" data-name="Path 4998" d="M-68.65,91.365c4.02,1.406,5.235-7.269,10.382-16.048,2.845-7.516,9.52-20.13,6.818-20.85s-6.062,5.572-10.925,15.916S-72.67,89.959-68.65,91.365Z" transform="translate(-4715.82 -18553.818)" fill="#cf8662" fill-rule="evenodd"/>
    <path id="Path_4999" data-name="Path 4999" d="M-79.458,80.014c2.647-1.078-1.518-6.592-4.9-11.275s-5.883-8.922-8.633-7.457.739,5.815,4.123,10.5,6.765,9.313,9.412,8.234Z" transform="translate(-4768.937 -18536.879)" fill="#cf8662" fill-rule="evenodd"/>
    <g id="Group_324" data-name="Group 324" transform="translate(246 -627.233)">
      <path id="Path_4990" data-name="Path 4990" d="M-99.351,107.529c-7.341,12.736-7.887,15.159-11.859,21.86-5.593,9.437-9.2,22.025-10.958,30.526-3.948,19.1-4.41,66.234,1.965,78.961,2.906,5.8,2.666,7.648,4.535,14.139,19.274,36.453,19.585,36.651,19.763,36.837s15.069,20.88,20.354,22.893c1.518-64.683.18-140,.286-205.961L-75.975,80.4l-3.739,3.652c-.181.2-.426.479-7.021,7.842C-86.888,92.116-95.067,99.726-99.351,107.529Z" transform="translate(-5095.116 -17860.469)" fill="#ffc1a2" fill-rule="evenodd"/>
      <path id="Path_4991" data-name="Path 4991" d="M-27.239,104.055c4.62-10.249,3.443-5.038,6.631-10.606l8.279-12.732A1.634,1.634,0,0,0-11.9,80c.059-.375.317-.449.426-.7,5.929.056,19.508,1.044,23.761-1.644-1.406-2.212.069-.717-3.072-2.062L-11.05,70.007c-8.291-2.717-50.987-3.182-60.017.469-4.617,1.867-7.688,1.826-12.952,2.98-9.488,2.079-9.107,1.31-10.892,4.2l32.056,1.938c2.129,11.331-10.159,37.923-9.362,44.992,4.219,2.569,3.7.8,7.317,4.062l14.01,10.476c3.414,2.159,3.02,4.247,5.593,4.658l.626,12.453c-1.251,5.328-3.636,13.293-1.5,24.231,3.83-1.188,5.719-9.988,7.107-12.866l3.1-4.372c5.537-6.594-.7-2.346,7.016-12.576a10.124,10.124,0,0,0,1.809-3.143c5.505-12.578,4.622-7.391,7.343-13.583a42.177,42.177,0,0,0,2.638-8.788c-6.728-1.583-3.171-3.53-4.453-4.661-3.078-4.49-.108,3.8-4.379-1.2-3.631-4.25-2.453,1.256-3.474-5.391-3.116-.432-.389-.259-2.026-1.785,2.907-3.207,1.424-1.764,4.256-8.047Z" transform="translate(-5019.674 -17891.854)" fill="#ffc1a2" fill-rule="evenodd"/>
      <path id="Path_4992" data-name="Path 4992" d="M-96.693,155.415c8.2,5.265,8.031,4.345,24.577,10.189,7.446,2.63,22.378,4.515,36.743,4.276,16.885-.281,33.091-3.184,36.674-4.94,4.538-2.223,21.987-7.987,23.494-9.205Z" transform="translate(-5024.132 -17672.879)" fill="#ffc1a2" fill-rule="evenodd"/>
      <path id="Path_5014" data-name="Path 5014" d="M68.113,77.69c-.821-.518.339-.023-2.283-1.342L51.121,71.13c.658,2.712.363,1.326,1.483,3.445l13.887,15.6a11.561,11.561,0,0,1,2.523,2.485c.177.22.389.514.557.745l25.12,27.912c.162.2.381.491.547.683l12.231,13.823c.141.2.345.506.489.692l2.209,2.345c2.715,2.928,2.363.764,3.962,5.93.1.961.015,1.051.248,1.247l1.686,22.224c.51,50.34-1.491,101.928.6,151.972,3.354-.256,3.653-1.946,5.281-4.616l20.2-35.37c.075-.156,1.032-2.59,1.032-2.592l1.867-6.763c.123-.32.263-.641.4-.944.129-.286.319-.584.456-.852l4.03-10.645c.077-.274.2-.581.263-.86.858-3.613.6-7.824.851-11.6.393-5.837,1.26-6.3,1.813-10.14,2.1-14.621-.136-32.413-2.073-46.486-2.616-19.006-3.968-15.545-6.3-23.221-.788-2.587-.378-1.932-1.333-4.641l-3.873-7.221c-.139-.256-.3-.574-.434-.84-1.94-3.946-2.833-8.87-5.587-12.8L122.176,124.4c-.131-.232-.3-.552-.432-.78l-20.117-21.505c-2-1.381.118.254-1.451-1.1-2.973-2.567,2.224,2.158-1.23-1.279-.18-.179-.4-.473-.576-.651L68.113,77.69Z" transform="translate(-5055.512 -17883.662)" fill="#ffc1a2" fill-rule="evenodd"/>
    </g>
    <g id="Path_4988" data-name="Path 4988" transform="translate(-4809.818 -18511.697)" fill="#fcfcfc" fill-rule="evenodd">
      <path d="M 31.82755470275879 363.8162841796875 C 31.82232284545898 363.8162841796875 31.81733131408691 363.8162841796875 31.81209945678711 363.8162841796875 C -16.92551612854004 363.8162536621094 -72.99736022949219 363.401611328125 -82.01770782470703 363.3200073242188 C -92.04001617431641 363.229248046875 -98.25774383544922 363.0150756835938 -101.5852127075195 362.6460571289063 C -103.2494430541992 362.4614562988281 -104.3072891235352 362.2340698242188 -105.1223602294922 361.8857727050781 C -106.0531311035156 361.488037109375 -106.5975570678711 360.9531555175781 -106.9602966308594 360.4626770019531 C -107.2766418457031 360.373291015625 -107.9197235107422 360.2279357910156 -109.1438598632813 360.0671691894531 L -111.7487487792969 359.72509765625 L -111.7532501220703 357.0978088378906 L -112.2304000854492 77.16331481933594 L -112.2310562133789 76.78354644775391 L -112.1370544433594 76.41558837890625 C -111.8459014892578 75.276123046875 -111.0308990478516 74.39643096923828 -109.7145919799805 73.80097198486328 C -109.1867828369141 73.56220245361328 -108.5539016723633 73.35250854492188 -107.779670715332 73.15988922119141 C -106.6240539550781 72.87239074707031 -105.5150909423828 72.71820068359375 -105.4684371948242 72.71177673339844 L -105.2521743774414 72.68196868896484 L -105.0338592529297 72.68381500244141 C -103.5406341552734 72.69635772705078 -101.4721298217773 72.70246887207031 -98.71021270751953 72.70246887207031 C -93.29962921142578 72.70246887207031 -85.91243743896484 72.67858123779297 -78.09151458740234 72.65331268310547 C -68.9835205078125 72.62385559082031 -58.66024780273438 72.59046936035156 -49.82878494262695 72.59046936035156 C -41.31982421875 72.59046936035156 -35.27663040161133 72.62108612060547 -31.35390090942383 72.68408203125 L -28.25293922424316 72.73389434814453 L -28.40570831298828 75.83142852783203 C -28.66017150878906 80.99227905273438 -31.97763252258301 90.43885040283203 -34.90459442138672 98.77342987060547 C -35.77997970581055 101.2661590576172 -36.6068229675293 103.6206588745117 -37.20890045166016 105.4768905639648 C -38.03440093994141 108.0218505859375 -38.14032363891602 108.7283172607422 -38.15309524536133 108.8842010498047 L -38.34774780273438 111.5692367553711 L -41.03805541992188 111.6643142700195 C -41.31107711791992 111.6740798950195 -41.42414093017578 111.6780166625977 -41.48329544067383 111.6795959472656 C -42.50802612304688 111.7115707397461 -43.75482177734375 111.7271270751953 -45.29339981079102 111.7271270751953 C -48.46693801879883 111.7271270751953 -52.45570755004883 111.6600112915039 -56.67866897583008 111.5889663696289 C -61.6637077331543 111.5050811767578 -66.8184814453125 111.4183120727539 -71.64628601074219 111.4183120727539 C -78.87338256835938 111.4183120727539 -83.64495849609375 111.6201858520508 -86.18934631347656 112.0345993041992 C -86.25583648681641 112.094367980957 -86.31972503662109 112.1602325439453 -86.36697387695313 112.2183532714844 C -86.30043029785156 112.4064636230469 -86.15961456298828 112.6635208129883 -86.02278137207031 112.8641891479492 C -85.31745910644531 113.0663757324219 -84.08360290527344 113.3020858764648 -82.28662872314453 113.4822769165039 C -76.19928741455078 114.0953140258789 -67.08974456787109 114.1363525390625 -59.77005386352539 114.1692810058594 C -55.23601531982422 114.189697265625 -51.65470886230469 114.2058181762695 -49.6805534362793 114.3495864868164 C -44.59847259521484 114.7181625366211 -39.24533462524414 115.3794937133789 -34.57126998901367 118.9778137207031 L -22.55904579162598 127.9406051635742 C -22.48678398132324 127.9928207397461 -22.36341667175293 128.0749816894531 -22.25409317016602 128.1478118896484 C -22.15914535522461 128.2110443115234 -22.06188011169434 128.2758483886719 -21.96485328674316 128.3424987792969 L -13.06636333465576 133.5648956298828 L -11.56763172149658 134.4444732666016 L -11.5849781036377 136.1821594238281 L -12.02844047546387 180.6474914550781 C -10.77495098114014 179.4615478515625 -10.38473415374756 178.7362365722656 -10.28267097473145 178.5053100585938 L -10.23959350585938 178.4078521728516 L -10.18967056274414 178.3136596679688 L 2.213329315185547 154.9030151367188 L 2.29598331451416 154.7469329833984 L 2.396406412124634 154.6016693115234 C 2.529714107513428 154.4088134765625 2.665675640106201 154.2383880615234 2.785637140274048 154.0880432128906 C 2.834481477737427 154.0267944335938 2.90800404548645 153.9346466064453 2.933371543884277 153.8992919921875 C 3.108856916427612 153.6433563232422 3.288188219070435 153.4305114746094 3.491520881652832 153.2393951416016 C 3.596323013305664 153.0697479248047 3.810028791427612 152.7054443359375 4.214749336242676 151.9554748535156 L 10.03248310089111 139.4559326171875 L 10.13825225830078 139.2286987304688 L 10.28025245666504 139.0222015380859 C 10.42090606689453 138.817626953125 10.7708683013916 138.3511657714844 11.66713714599609 137.1735534667969 C 11.72082805633545 137.1029968261719 11.76733493804932 137.0419006347656 11.80385494232178 136.993896484375 L 16.42525291442871 129.3267822265625 L 16.49963760375977 129.2033996582031 L 16.58548355102539 129.0876617431641 C 16.72682952880859 128.8972320556641 16.87236785888672 128.7291259765625 17.00079154968262 128.580810546875 C 17.04607772827148 128.5285491943359 17.11357116699219 128.4505920410156 17.13969802856445 128.4179229736328 C 18.26922607421875 126.8909912109375 19.25567436218262 124.5003509521484 19.9920597076416 121.5043182373047 C 20.40407752990723 119.8279647827148 20.64285469055176 118.3332672119141 20.7589225769043 117.4618072509766 C 20.19811630249023 116.6218566894531 18.86635780334473 115.0531692504883 15.97025203704834 113.3229293823242 L 15.87817573547363 113.2679290771484 L 15.79029083251953 113.2065048217773 L 10.03144454956055 109.1816253662109 L 9.978791236877441 109.1448135375977 L 9.927752494812012 109.1058120727539 C 9.514735221862793 108.7899856567383 9.228137969970703 108.4807968139648 9.019266128540039 108.1977310180664 C 8.900669097900391 108.145149230957 8.740471839904785 108.0771865844727 8.526867866516113 107.99169921875 L 6.296983242034912 107.0993576049805 L 6.679829597473145 104.7282791137695 C 7.376330375671387 100.4145965576172 9.399081230163574 97.58791351318359 11.54642963409424 94.6044921875 L 15.65279102325439 87.75481414794922 L 15.75802135467529 87.57927703857422 L 15.88613700866699 87.41966247558594 C 16.07340621948242 87.186279296875 16.26975250244141 86.98919677734375 16.42752265930176 86.83081817626953 C 16.45704460144043 86.80116271972656 16.49671363830566 86.76134490966797 16.52626800537109 86.73107147216797 L 19.55452919006348 82.81993865966797 C 20.19212913513184 81.58089447021484 20.88258361816406 79.79695892333984 21.55152130126953 78.06874084472656 C 21.94602203369141 77.04946899414063 22.31863784790039 76.08673858642578 22.69106101989746 75.20358276367188 L 23.2708683013916 73.82858276367188 L 24.7172908782959 73.46143341064453 C 27.49140548706055 72.75731658935547 30.50186729431152 72.42938995361328 34.19144439697266 72.42938995361328 C 36.67709732055664 72.42938995361328 39.16571426391602 72.57816314697266 41.57240676879883 72.72200775146484 C 42.6413688659668 72.78593444824219 43.7467155456543 72.85200500488281 44.81267547607422 72.90204620361328 L 47.62563705444336 73.03412628173828 L 47.67160034179688 75.84977722167969 C 47.81413650512695 84.58466339111328 47.80290603637695 93.42431640625 47.79206085205078 101.9729309082031 C 47.78913879394531 104.2692794799805 47.78613662719727 106.6438140869141 47.78613662719727 108.9821243286133 C 47.78621292114258 110.9941253662109 47.67121505737305 113.3398895263672 47.54948425292969 115.823356628418 C 47.3292121887207 120.3168563842773 47.07955932617188 125.4098892211914 47.4605598449707 129.7503967285156 C 47.9370231628418 135.1785430908203 49.24202346801758 137.3415069580078 50.25290679931641 138.2001647949219 C 56.14602279663086 143.2060394287109 65.68563842773438 143.625244140625 74.1646728515625 143.6251983642578 C 74.80740356445313 143.6251983642578 75.44040679931641 143.6231231689453 76.06105804443359 143.6210784912109 C 76.66471099853516 143.6191253662109 77.25682830810547 143.6172027587891 77.83494567871094 143.6172027587891 C 87.91317749023438 143.6175079345703 97.06909942626953 143.8904724121094 106.7626342773438 144.1795043945313 C 108.599983215332 144.2342834472656 110.4495620727539 144.2894287109375 112.3194046020508 144.3430480957031 C 113.2938690185547 144.3709716796875 114.5511779785156 144.9211273193359 115.1572875976563 146.3814239501953 C 115.2734451293945 146.6613616943359 115.3685989379883 146.9745483398438 115.456672668457 147.3671264648438 C 115.559211730957 147.823974609375 115.6546020507813 148.401123046875 115.7483291625977 149.1315155029297 C 115.8945999145508 150.2713928222656 115.9847106933594 151.3893585205078 115.9884796142578 151.4363861083984 L 116.015251159668 151.7708587646484 L 115.997917175293 151.891357421875 C 116.0361862182617 153.2748107910156 116.5015411376953 161.3053283691406 116.7841339111328 166.1817779541016 C 117.056640625 170.8844299316406 117.1602935791016 172.6927337646484 117.1673278808594 173.0244293212891 L 117.1687545776367 173.0917816162109 L 117.1671371459961 173.1591186523438 L 115.3178253173828 251.0162658691406 C 115.3707962036133 253.9699554443359 115.4561767578125 257.9721374511719 115.5549087524414 262.6012878417969 C 116.1534805297852 290.6648254394531 117.2676773071289 342.9017028808594 115.4329452514648 356.3880920410156 L 115.2490615844727 357.73974609375 L 114.1095581054688 358.4896545410156 L 108.4837493896484 362.1920776367188 L 108.1456756591797 362.4145812988281 L 107.7606735229492 362.53955078125 C 107.0652923583984 362.7652282714844 105.8540573120117 363.0044250488281 99.49252319335938 363.2294311523438 C 95.49552154541016 363.3707885742188 89.87210083007813 363.48828125 82.7784423828125 363.57861328125 C 70.39700317382813 363.736328125 53.25453948974609 363.8162841796875 31.82755470275879 363.8162841796875 Z M 35.71794891357422 278.5682373046875 C 35.81676864624023 278.7226867675781 38.15444183349609 282.3028259277344 40.99075317382813 282.3026123046875 C 41.26506042480469 282.3025817871094 41.54586791992188 282.2688293457031 41.8253288269043 282.2021484375 C 42.18867111206055 282.1155090332031 42.43244934082031 282.0341796875 42.59031295776367 281.97119140625 C 42.55981826782227 281.6667175292969 42.45602416992188 281.09765625 42.15732955932617 280.0465393066406 C 41.96294403076172 279.3624267578125 41.85967636108398 278.8812255859375 41.7842903137207 278.5299072265625 C 41.77706909179688 278.4962463378906 41.76934814453125 278.4602355957031 41.76168441772461 278.4248657226563 C 41.52913665771484 278.1886596679688 41.07159423828125 277.7655334472656 40.5929069519043 277.3228454589844 C 39.72902297973633 276.5239562988281 38.42352294921875 275.3167419433594 36.50532913208008 273.4552001953125 C 33.58286666870117 270.6188049316406 24.58136749267578 264.734619140625 11.43052196502686 262.7658996582031 C 9.351099014282227 262.4546508789063 5.855598449707031 262.2688293457031 2.080175638198853 262.2688293457031 C -3.317785978317261 262.2688293457031 -8.726516723632813 262.6248168945313 -13.14967060089111 263.2712097167969 C -21.95039749145508 264.5570983886719 -28.40119934082031 267.0969543457031 -29.39944267272949 267.6892395019531 C -31.09514999389648 269.064697265625 -32.36801528930664 269.8995971679688 -33.59947967529297 270.7073059082031 C -34.97747802734375 271.6111145019531 -36.40240097045898 272.5457458496094 -38.64082336425781 274.3858032226563 C -40.89936447143555 276.2425842285156 -42.55155563354492 278.7445373535156 -43.13078689575195 280.2834167480469 L -43.13459396362305 280.2935180664063 L -43.13847732543945 280.3035888671875 C -43.47470855712891 281.1776733398438 -43.56132507324219 281.431396484375 -43.57347869873047 281.7246704101563 C -43.57769775390625 281.8263244628906 -43.5745849609375 281.9462280273438 -43.56366348266602 282.0874938964844 C -42.69594955444336 281.9692687988281 -42.02722930908203 281.7850036621094 -41.49921035766602 281.5255432128906 C -40.67924880981445 281.1225891113281 -40.0159797668457 280.4581298828125 -38.81809234619141 279.2207336425781 C -38.46378707885742 278.854736328125 -38.06221008300781 278.4398803710938 -37.61936187744141 277.9996643066406 C -32.66859436035156 273.0773620605469 -21.98547744750977 268.337890625 -15.11386299133301 266.9996643066406 C -14.0895938873291 266.8002319335938 -13.20924758911133 266.610595703125 -12.35790157318115 266.4271545410156 C -9.088786125183105 265.722900390625 -6.506632328033447 265.1665954589844 -0.5597859621047974 265.1665954589844 L -0.4776321053504944 265.1666259765625 C 5.781637191772461 265.1718444824219 9.876675605773926 265.3306274414063 13.58563709259033 266.1533813476563 C 17.3624439239502 266.9912109375 20.72452163696289 268.5071105957031 25.1902904510498 271.3857421875 C 33.09652328491211 276.4822387695313 34.75486755371094 277.5883178710938 34.82159805297852 277.6329345703125 L 35.39009857177734 278.0128173828125 L 35.71794891357422 278.5682373046875 Z M -32.43320846557617 216.2126617431641 C -30.65532493591309 216.2126617431641 -29.39401626586914 217.422119140625 -28.59993934631348 218.3318939208984 C -27.91063117980957 219.1216278076172 -27.2202091217041 220.1076202392578 -26.48928642272949 221.1515502929688 C -25.61594009399414 222.3988189697266 -24.71286201477051 223.6885528564453 -23.80209350585938 224.6641693115234 C -22.90230369567871 225.6280364990234 -22.41735458374023 225.8232727050781 -22.29293823242188 225.8599853515625 C -22.24117660522461 225.8344421386719 -22.1241569519043 225.7652587890625 -21.94459342956543 225.5956268310547 C -21.52917098999023 225.2031555175781 -21.51859283447266 224.9520111083984 -21.51290130615234 224.8170471191406 C -21.50347900390625 224.5933227539063 -21.55386352539063 224.0885925292969 -21.99717140197754 223.2224273681641 C -22.87274742126465 221.5116577148438 -24.62640190124512 219.6203918457031 -26.03547859191895 218.1006927490234 C -28.04367065429688 215.9348907470703 -29.37032508850098 214.5040893554688 -29.17790222167969 212.5836944580078 C -28.97978591918945 210.6063537597656 -27.3227481842041 209.3220520019531 -24.81447792053223 207.3780059814453 C -23.63290214538574 206.4622344970703 -22.29367065429688 205.4242706298828 -21.28328514099121 204.4184265136719 C -20.38011169433594 203.5193176269531 -20.07630157470703 202.9760284423828 -19.97689819335938 202.7416381835938 C -19.9958667755127 202.7227325439453 -20.01823806762695 202.7015075683594 -20.04447746276855 202.6780853271484 C -20.20070838928223 202.5387420654297 -20.34986305236816 202.4450836181641 -20.41559410095215 202.4450836181641 C -20.45967102050781 202.4450836181641 -20.87405586242676 202.4658508300781 -21.83794021606445 203.1858215332031 C -22.73724746704102 203.8575439453125 -23.73574829101563 204.8523864746094 -24.70140075683594 205.8145446777344 C -27.03940200805664 208.1439666748047 -29.45697784423828 210.552734375 -32.47782516479492 210.6030883789063 C -32.50720977783203 210.6035919189453 -32.53517150878906 210.6038208007813 -32.5647087097168 210.6038208007813 C -35.51174926757813 210.6038208007813 -38.15847778320313 208.1356201171875 -40.96063232421875 205.5225524902344 C -42.1575927734375 204.4063568115234 -43.39528656005859 203.2521667480469 -44.50920867919922 202.4462432861328 C -45.64353561401367 201.6255798339844 -46.18392562866211 201.5024871826172 -46.3380126953125 201.4845581054688 C -46.37555694580078 201.5156402587891 -46.44172668457031 201.5781555175781 -46.53147888183594 201.6928558349609 C -46.68096542358398 201.8838806152344 -46.75901794433594 202.0195465087891 -46.79861450195313 202.1013641357422 C -46.71285629272461 202.2305450439453 -46.49496078491211 202.500244140625 -45.97220993041992 202.920166015625 C -45.28159332275391 203.4749298095703 -44.37932586669922 204.0404357910156 -43.42405700683594 204.63916015625 C -40.76824569702148 206.3037414550781 -37.758056640625 208.1903991699219 -37.19178771972656 211.3775482177734 C -36.80251693725586 213.5683898925781 -36.93182373046875 215.1636962890625 -37.61105346679688 216.5502014160156 C -38.27893829345703 217.9134674072266 -39.30128479003906 218.7049255371094 -40.28997802734375 219.4703216552734 C -40.93386459350586 219.9687805175781 -41.59967041015625 220.4842071533203 -42.32255554199219 221.2616271972656 C -42.50978469848633 221.4629669189453 -42.6935920715332 221.659423828125 -42.8731689453125 221.851318359375 C -43.59374618530273 222.6214752197266 -44.21609497070313 223.2865905761719 -44.67928695678711 223.86181640625 C -44.81914901733398 224.0355224609375 -44.92745590209961 224.1803894042969 -45.01115036010742 224.2996673583984 C -44.94298553466797 224.3204650878906 -44.86841201782227 224.3287811279297 -44.77563095092773 224.3287811279297 C -43.63326263427734 224.3286743164063 -41.70487594604492 223.0628662109375 -40.34841918945313 222.1228942871094 C -39.97915267944336 221.6003112792969 -39.34477996826172 220.7462310791016 -38.56574630737305 219.8738555908203 C -36.59859466552734 217.6709289550781 -34.75067138671875 216.4836273193359 -32.91640090942383 216.2440032958984 C -32.75705337524414 216.2232055664063 -32.59451675415039 216.2126617431641 -32.43320846557617 216.2126617431641 Z M 19.10795593261719 224.4981384277344 L 19.27320671081543 224.9055023193359 C 20.9711971282959 224.7183074951172 21.77923393249512 224.3000946044922 22.02396774291992 224.1486511230469 C 22.43410110473633 223.6351165771484 23.37720680236816 222.5048828125 24.5997142791748 221.3607788085938 C 27.04863739013672 219.06884765625 29.40756034851074 217.8406677246094 31.6109447479248 217.7103118896484 C 31.74463653564453 217.702392578125 31.8805980682373 217.6983947753906 32.01509857177734 217.6983947753906 C 34.27667617797852 217.6983947753906 36.52009963989258 218.7776947021484 38.68305969238281 220.9062805175781 C 39.57655715942383 221.7855529785156 40.25959777832031 222.6550445556641 40.65877914428711 223.2031555175781 C 41.46372604370117 223.701904296875 42.90656280517578 224.4563140869141 44.38191223144531 224.7984466552734 C 44.20084381103516 224.4306488037109 43.75267028808594 223.9439849853516 42.89013671875 223.0470886230469 C 42.29117584228516 222.4242401123047 41.54571533203125 221.6490783691406 40.74075317382813 220.6881256103516 C 39.97448348999023 219.7733917236328 39.12698364257813 219.1553192138672 38.30736923217773 218.5576171875 C 37.57613754272461 218.0243988037109 36.88548278808594 217.5207366943359 36.2852897644043 216.8448944091797 C 35.37409973144531 215.81884765625 34.9120979309082 214.636962890625 34.9120979309082 213.3320465087891 C 34.9120979309082 212.0386657714844 35.43429183959961 210.7972717285156 36.46421432495117 209.6423492431641 C 37.11094665527344 208.9170532226563 37.88282775878906 208.2889709472656 38.7000617980957 207.6239624023438 C 39.72263717651367 206.7918853759766 40.78005981445313 205.9314270019531 41.53306198120117 204.9124298095703 C 41.67890548706055 204.7150421142578 41.82240676879883 204.5220031738281 41.96282958984375 204.3330841064453 C 42.56748199462891 203.519775390625 43.08963775634766 202.8173522949219 43.4661750793457 202.2176208496094 C 43.51192474365234 202.1447601318359 43.55320739746094 202.0770111083984 43.59045791625977 202.0141296386719 C 43.41103363037109 202.0878295898438 43.18498229980469 202.1950836181641 42.90552139282227 202.3511962890625 C 42.07317733764648 202.8162078857422 41.14006042480469 203.5048980712891 40.33075332641602 204.1138916015625 C 39.52021408081055 204.7242736816406 38.76490783691406 205.5511627197266 38.03444290161133 206.3508605957031 C 36.45975112915039 208.0747833251953 34.67494583129883 210.0287017822266 31.93013763427734 210.0287017822266 C 31.82486724853516 210.0287017822266 31.71809959411621 210.0255889892578 31.61279106140137 210.0194244384766 C 28.13317489624023 209.8157806396484 25.10971450805664 207.4054260253906 22.44217491149902 205.27880859375 C 21.47105979919434 204.5046234130859 20.55379104614258 203.7733612060547 19.74579048156738 203.2557373046875 C 19.0851993560791 202.8325500488281 18.71872711181641 202.6978759765625 18.56155395507813 202.6553497314453 C 18.48749160766602 202.6928863525391 18.42611503601074 202.7275848388672 18.37571144104004 202.7585296630859 C 18.56093406677246 203.1237487792969 19.05541038513184 203.810302734375 20.14329147338867 204.6551208496094 C 20.95355987548828 205.2843475341797 21.85406112670898 205.8144683837891 22.72494506835938 206.3271179199219 C 23.93482971191406 207.0393218994141 25.07763671875 207.7120056152344 26.03413772583008 208.6495513916016 C 27.40371322631836 209.9919738769531 28.06994438171387 211.5982055664063 28.01425170898438 213.4235534667969 C 27.96321487426758 215.0958557128906 27.21402168273926 216.5990905761719 25.78752136230469 217.8915863037109 C 24.83644485473633 218.7533569335938 23.72282981872559 219.41015625 22.64590644836426 220.0453491210938 C 21.6346378326416 220.6418609619141 20.58890724182129 221.2586212158203 20.13298416137695 221.8107452392578 C 19.29183769226074 222.8292388916016 19.1319694519043 223.9535522460938 19.10795593261719 224.4981384277344 Z M -67.54709625244141 137.5329284667969 C -67.42155456542969 137.5329284667969 -67.29513549804688 137.5330505371094 -67.16893768310547 137.5332336425781 C -65.55709075927734 137.5357360839844 -63.54121017456055 137.6117706298828 -61.20705413818359 137.6998138427734 C -58.38597869873047 137.8061981201172 -55.1884765625 137.9268188476563 -52.20724868774414 137.9267730712891 C -48.31147384643555 137.9267578125 -45.95705413818359 137.7118682861328 -44.53443145751953 137.4512023925781 L -44.05893707275391 135.1653442382813 C -50.45681381225586 134.8964233398438 -55.97209167480469 134.7651672363281 -60.83751678466797 134.7651672363281 C -66.69928741455078 134.7651672363281 -71.52524566650391 134.9604339599609 -75.18128967285156 135.3455505371094 C -78.82411193847656 135.7292633056641 -80.64650726318359 136.2375640869141 -81.51442718505859 136.5761871337891 C -81.18802642822266 136.7666931152344 -80.49917602539063 137.0466918945313 -79.10105895996094 137.2488555908203 C -77.26267242431641 137.5146636962891 -74.86178588867188 137.5513153076172 -72.54113006591797 137.5513153076172 C -71.78012847900391 137.5513153076172 -71.0045166015625 137.5470428466797 -70.18332672119141 137.5425109863281 C -69.3297119140625 137.5378112792969 -68.44701385498047 137.5329284667969 -67.54709625244141 137.5329284667969 Z" stroke="none"/>
      <path d="M 31.81194305419922 360.8162841796875 C 70.28250122070313 360.8163146972656 104.1424942016602 360.5598754882813 106.8345184326172 359.6860961914063 L 112.4603576660156 355.983642578125 C 114.5696029663086 340.479248046875 112.6822738647461 271.4264526367188 112.3171463012695 251.0079040527344 L 114.1679763793945 173.0879058837891 C 114.1501083374023 172.2445220947266 112.9311904907227 152.1407012939453 112.9980621337891 151.67578125 C 112.9980621337891 151.67578125 112.6520614624023 147.3538208007813 112.2333984375 147.3418121337891 C 100.6247329711914 147.0088653564453 89.79618835449219 146.6175689697266 77.83498382568359 146.6171875 C 68.68383026123047 146.6172027587891 56.10039520263672 147.103515625 48.31072998046875 140.4866180419922 C 42.25889587402344 135.3460693359375 44.78647994995117 118.1703186035156 44.78610610961914 108.9821548461914 C 44.78610610961914 97.93144226074219 44.85227203369141 86.94694519042969 44.67198181152344 75.89873504638672 C 38.30401992797852 75.5997314453125 31.62619018554688 74.80294036865234 25.45535469055176 76.36923217773438 C 24.41281318664551 78.84152984619141 23.23339653015137 82.31710815429688 22.08723068237305 84.44911193847656 L 18.82235527038574 88.66581726074219 C 18.65748023986816 88.85732269287109 18.38372993469238 89.10065460205078 18.2258129119873 89.29736328125 L 14.05460548400879 96.25523376464844 C 11.96323013305664 99.16090393066406 10.23243808746338 101.5466918945313 9.641480445861816 105.2064819335938 C 11.87918853759766 106.1019821166992 10.91543865203857 106.0844879150391 11.75002193450928 106.7226943969727 L 17.50885581970215 110.7475662231445 C 22.77944946289063 113.8963470458984 23.82693672180176 116.8587341308594 23.83972930908203 116.8274002075195 C 23.89343452453613 116.699577331543 23.06225204467773 125.4677429199219 19.54281425476074 130.2138214111328 C 19.39477157592773 130.4133605957031 19.1426887512207 130.6759490966797 18.99460411071777 130.87548828125 L 14.29197978973389 138.6773986816406 C 14.27060508728027 138.7089080810547 12.95114707946777 140.4326934814453 12.7523136138916 140.7218627929688 L 6.897563457489014 153.3009796142578 C 5.504563331604004 155.8894805908203 5.759438514709473 155.0818176269531 5.406188488006592 155.5978546142578 C 5.254605293273926 155.8191070556641 5.016188621520996 156.087646484375 4.864271640777588 156.3074493408203 L -7.538769721984863 179.7181091308594 C -8.941561698913574 182.8919372558594 -14.68318653106689 186.472900390625 -15.08827018737793 186.6297302246094 L -14.58485317230225 136.1522369384766 L -23.58260345458984 130.8716125488281 C -23.80839538574219 130.7119903564453 -24.11577033996582 130.5187377929688 -24.33806228637695 130.3562774658203 L -36.3840217590332 121.3683166503906 C -40.21614456176758 118.4098205566406 -44.59331130981445 117.7264022827148 -49.8984375 117.3416519165039 C -54.90327072143555 116.9771957397461 -72.63410186767578 117.4695281982422 -82.5859375 116.4673156738281 C -84.70931243896484 116.2544021606445 -86.62493896484375 115.9175720214844 -87.69773101806641 115.4511947631836 C -88.3359375 114.9863204956055 -89.58335113525391 113.2041091918945 -89.38035583496094 111.7968597412109 C -89.17735290527344 110.3896484375 -87.77098083496094 109.3874053955078 -87.29197692871094 109.1855697631836 C -80.30368804931641 107.7878799438477 -57.12545013427734 108.7271270751953 -45.29306030273438 108.7271270751953 C -43.86449813842773 108.7271270751953 -42.60252380371094 108.7134552001953 -41.55314636230469 108.6803207397461 C -41.61024475097656 108.6823577880859 -41.37765502929688 108.6745681762695 -41.14518737792969 108.6662368774414 C -40.87522888183594 104.9428176879883 -31.78922843933105 83.53598785400391 -31.40206146240234 75.68369293212891 C -45.11423492431641 75.46351623535156 -81.48983001708984 75.70245361328125 -98.71028137207031 75.70246124267578 C -101.3127670288086 75.70246887207031 -103.4758071899414 75.69701385498047 -105.0590591430664 75.68369293212891 C -105.0590591430664 75.68369293212891 -108.992057800293 76.22544097900391 -109.2303924560547 77.15819549560547 L -108.7532272338867 357.0927429199219 C -98.65235137939453 358.419189453125 -115.1625213623047 360.019775390625 -81.99056243896484 360.3201599121094 C -71.01430511474609 360.4194641113281 -16.03653335571289 360.8162536621094 31.81194305419922 360.8162841796875 M -0.559690535068512 268.1665649414063 C -7.661939144134521 268.1665649414063 -9.46745777130127 268.9565734863281 -14.54039478302002 269.9443054199219 C -20.94897842407227 271.1924133300781 -31.06318664550781 275.7116088867188 -35.50431060791016 280.127197265625 C -38.90464401245117 283.507568359375 -39.60022735595703 285.1575317382813 -46.04456329345703 285.2492065429688 C -46.84526824951172 281.6139831542969 -46.68281173706055 281.1616516113281 -45.9384765625 279.2265625 C -45.15043640136719 277.1330261230469 -43.14906311035156 274.2083740234375 -40.54589462280273 272.0683898925781 L -40.54589462280273 272.068359375 C -36.13376998901367 268.44140625 -34.69318771362305 268.132080078125 -31.21964454650879 265.302734375 C -30.21751976013184 264.4863586425781 -22.95877075195313 261.6725769042969 -13.58347797393799 260.302734375 C -4.35893726348877 258.9546813964844 7.06635570526123 259.0792541503906 11.87464714050293 259.7989501953125 C 26.58577156066895 262.0012817382813 35.88710403442383 268.674560546875 38.5946044921875 271.3023071289063 C 45.76322937011719 278.2591247558594 44.06148147583008 275.7720336914063 45.04310607910156 279.2265625 C 46.02473068237305 282.6811218261719 45.99989700317383 284.2906494140625 42.5211067199707 285.120361328125 C 36.97122573852539 286.443603515625 33.15468978881836 280.127197265625 33.15468978881836 280.127197265625 C 33.15468978881836 280.127197265625 31.54118919372559 279.0488891601563 23.56489753723145 273.9072875976563 C 15.46293830871582 268.6847229003906 11.33793830871582 268.1764526367188 -0.4801032841205597 268.1665954589844 C -0.5063515901565552 268.1665954589844 -0.5335857272148132 268.1665649414063 -0.559690535068512 268.1665649414063 M -32.43320083618164 219.212646484375 C -32.46514892578125 219.212646484375 -32.49649047851563 219.2146453857422 -32.52781295776367 219.2187347412109 C -35.1195182800293 219.5572814941406 -38.18456268310547 224.271484375 -38.18456268310547 224.271484375 C -40.96213912963867 226.2137145996094 -44.51951217651367 228.6464691162109 -47.15918731689453 226.4771118164063 C -49.658935546875 224.4227294921875 -47.5361442565918 222.4629058837891 -44.5195198059082 219.2187347412109 C -41.50293731689453 215.974609375 -39.33418655395508 216.4684448242188 -40.1455192565918 211.9023590087891 C -40.95680999755859 207.3362426757813 -53.26856231689453 205.4341125488281 -48.89402008056641 199.8440246582031 C -44.53181076049805 194.26953125 -37.01918029785156 207.6038208007813 -32.56470108032227 207.6038360595703 C -32.55215835571289 207.6038360595703 -32.54030609130859 207.6037292480469 -32.52781295776367 207.6035308837891 C -28.07810211181641 207.5292816162109 -22.94922256469727 196.0664367675781 -18.04735374450684 200.4394378662109 C -13.14552021026611 204.8124847412109 -25.98081207275391 210.7662353515625 -26.1928539276123 212.8828125 C -26.38097763061523 214.7602386474609 -14.57814502716064 222.7636566162109 -19.88447761535645 227.7764434814453 C -25.12672424316406 232.7285919189453 -29.8216609954834 219.212646484375 -32.43320083618164 219.212646484375 M 18.4809627532959 199.6363677978516 C 22.06618881225586 199.6363677978516 26.98805236816406 206.7436218261719 31.78810501098633 207.0245666503906 C 34.15484237670898 207.1627655029297 35.7421875 203.8137817382813 38.52685546875 201.7167816162109 C 41.37764739990234 199.5714721679688 44.2748908996582 197.6015625 46.28368759155273 199.8440246582031 C 47.90285491943359 201.6230316162109 46.21010589599609 203.631103515625 43.9458122253418 206.6953125 C 41.68152236938477 209.759521484375 37.91210556030273 211.2206878662109 37.91210556030273 213.33203125 C 37.91210556030273 215.443359375 40.65552139282227 215.9145660400391 43.04052352905273 218.7617340087891 C 45.42552185058594 221.6089019775391 47.1912727355957 222.6269378662109 47.4521484375 224.7206878662109 C 47.61235427856445 225.9866485595703 45.86822891235352 227.9783172607422 45.86822891235352 227.9783172607422 C 42.18765258789063 228.0023193359375 38.52685928344727 225.3906097412109 38.52685546875 225.3906097412109 C 38.52685928344727 225.3906097412109 35.37023544311523 220.4929962158203 31.78810501098633 220.7050628662109 C 28.20585441589355 220.9169921875 24.19789695739746 226.23828125 24.19789695739746 226.23828125 C 24.19789886474609 226.2382965087891 22.6512393951416 228.0360565185547 17.29010581970215 227.9975738525391 L 16.12402153015137 225.1230316162109 C 16.12402153015137 225.1230316162109 15.80135536193848 222.344482421875 17.8198127746582 219.9004058837891 C 19.83827209472656 217.4563140869141 24.92193794250488 216.4017333984375 25.01564598083496 213.33203125 C 25.10931396484375 210.2623138427734 21.47068786621094 209.4843597412109 18.30323028564453 207.0245666503906 C 15.13572978973389 204.5647430419922 13.85593795776367 201.4751129150391 17.48927116394043 199.8440246582031 C 17.80660820007324 199.7015686035156 18.13785743713379 199.6363677978516 18.4809627532959 199.6363677978516 M -67.54672241210938 140.5329437255859 C -77.23232269287109 140.532958984375 -84.904052734375 141.1014709472656 -84.85760498046875 135.9130249023438 C -84.81056213378906 130.6581878662109 -55.30668640136719 131.6201782226563 -40.40406036376953 132.3258972167969 L -41.97068786621094 139.8571929931641 C -46.80214309692383 141.7630920410156 -60.89256286621094 140.5430297851563 -67.17376708984375 140.5332336425781 C -67.29835510253906 140.5330352783203 -67.42278289794922 140.5329437255859 -67.54672241210938 140.5329437255859 M 31.82131385803223 366.8162841796875 C -16.05935287475586 366.8162841796875 -71.0633544921875 366.4192810058594 -82.04485321044922 366.3199157714844 C -101.4678039550781 366.14404296875 -106.1412887573242 365.7983093261719 -108.644172668457 363.1674194335938 C -108.8975677490234 363.1273193359375 -109.1920318603516 363.0866088867188 -109.5344390869141 363.0416564941406 L -114.744270324707 362.3574829101563 L -115.231689453125 76.40877532958984 L -115.0436477661133 75.67282104492188 C -113.8067245483398 70.83198547363281 -108.0463562011719 70.03852844238281 -105.877815246582 69.73982238769531 L -98.71027374267578 69.70248413085938 L -49.82889556884766 69.59048461914063 C -42.26826858520508 69.59048461914063 -35.65306091308594 69.61465454101563 -31.30572891235352 69.68448638916016 L -25.10389518737793 69.78406524658203 L -25.40935325622559 75.97914886474609 C -25.66493606567383 81.16315460205078 -28.45422744750977 89.45994567871094 -32.07410430908203 99.76765441894531 C -33.37214660644531 103.4639053344727 -34.98764419555664 108.0640258789063 -35.17743682861328 109.2601089477539 L -35.95168685913086 114.1387329101563 L -36.6109504699707 114.2080764770508 C -35.29113388061523 114.8470840454102 -33.98926544189453 115.6371002197266 -32.71743774414063 116.6189880371094 L -20.74993705749512 125.54736328125 L -8.550477981567383 132.7367401123047 L -8.917351722717285 169.5223693847656 L -0.1753116101026535 153.0034790039063 L 0.4406050741672516 152.2169799804688 C 0.6524364948272705 151.9135131835938 0.8701690435409546 151.6405181884766 1.102414608001709 151.3896026611328 C 1.226462841033936 151.1732330322266 1.390119433403015 150.8737945556641 1.614063382148743 150.4576568603516 L 7.312646865844727 138.1900634765625 C 7.975271701812744 137.0795288085938 8.835146903991699 135.9410247802734 9.281604766845703 135.3544464111328 L 14.12168884277344 127.3371505737305 L 14.73268795013428 126.6172332763672 C 16.22325134277344 124.6148452758789 17.16831016540527 120.8151626586914 17.59966087341309 118.3271331787109 C 17.00712776184082 117.7064361572266 16.01623153686523 116.8450622558594 14.43160533905029 115.8983612060547 L 7.078771591186523 110.7780685424805 L 6.982091426849365 110.6179428100586 L 3.446063280105591 109.2028579711914 L 3.718188285827637 104.2500305175781 C 4.53114652633667 99.21556854248047 6.876021862030029 95.95781707763672 9.143688201904297 92.80735778808594 L 13.45702171325684 85.58294677734375 L 14.30185508728027 84.71385955810547 L 17.34306335449219 80.77586364746094 C 17.46077156066895 80.38356781005859 18.1126880645752 78.64228057861328 18.75364685058594 76.98619079589844 L 19.92681312561035 74.03790283203125 L 21.08647918701172 71.28785705566406 L 23.97927093505859 70.55364990234375 C 27.00127220153809 69.78661346435547 30.24627113342285 69.42935943603516 34.19139862060547 69.42935943603516 C 36.70656204223633 69.42935943603516 39.24156188964844 69.57731628417969 41.75156402587891 69.72736358642578 L 50.57927322387695 70.16952514648438 L 50.67118835449219 75.80081939697266 C 50.8138542175293 84.54423522949219 50.80310440063477 93.24786376953125 50.79202270507813 101.9756546020508 L 50.78610610961914 108.9821548461914 C 50.78619003295898 111.0056076049805 50.67181396484375 113.4005661010742 50.54585647583008 115.9702758789063 C 50.28477096557617 121.2971115112305 49.67331314086914 133.7716064453125 52.19506454467773 135.9136505126953 C 57.31314849853516 140.2611999511719 66.21897888183594 140.6252288818359 74.16477203369141 140.6251983642578 L 77.83498382568359 140.6171875 C 87.93085479736328 140.6175231933594 97.22456359863281 140.8937835693359 106.8523941040039 141.1808166503906 L 112.4053955078125 141.3442840576172 C 118.203483581543 141.5104827880859 118.6888961791992 147.5740661621094 118.9789352416992 151.1969909667969 L 119.0324783325195 151.8658599853516 L 118.9369354248047 152.530029296875 C 119.0119400024414 152.8502807617188 119.4491882324219 160.3150329589844 119.7792739868164 166.0108642578125 C 119.9916076660156 169.6749877929688 120.1598968505859 172.6428680419922 120.1666488647461 172.9607696533203 L 118.3154373168945 251.1503601074219 L 118.5541915893555 262.5372314453125 C 119.1545639038086 290.6829833984375 120.2720184326172 343.0729370117188 118.4056015014648 356.7924499511719 L 118.0378112792969 359.4958190917969 L 109.4567718505859 365.1430969238281 L 108.6868133544922 365.3930358886719 C 106.9406433105469 365.9597778320313 104.3017730712891 366.8162841796875 31.82131385803223 366.8162841796875 Z M 31.01461029052734 212.9470367431641 C 31.01922607421875 213.1328430175781 31.01873588562012 213.3223419189453 31.01285552978516 213.5150299072266 C 30.99957656860352 213.9499664306641 30.95787811279297 214.3654022216797 30.89102745056152 214.7631225585938 C 31.07088279724121 214.7422485351563 31.25175857543945 214.7262878417969 31.43377113342285 214.7155303955078 C 31.63290023803711 214.7149047851563 31.83061790466309 214.7196197509766 32.02532577514648 214.7288818359375 C 31.95211791992188 214.2898712158203 31.91210556030273 213.8246459960938 31.91210556030273 213.33203125 C 31.91210556030273 213.2296295166016 31.91398429870605 213.1283264160156 31.91768264770508 213.0280456542969 C 31.61166381835938 213.0107421875 31.31031227111816 212.9834594726563 31.01461029052734 212.9470367431641 Z" stroke="none" fill="#cf8662"/>
    </g>
  </g>
</svg>
