<svg xmlns="http://www.w3.org/2000/svg" width="129.169" height="120.625" viewBox="0 0 129.169 120.625">
  <g id="Group_323" data-name="Group 323" transform="matrix(0.966, 0.259, -0.259, 0.966, -781.719, 21259.443)">
    <path id="Path_4876" data-name="Path 4876" d="M63.578,212.037l.98,3.658c-2.245,1.462-13.739,4.517-17.126,4.622l-.837-3.91ZM35.79,209.169c5.834-1.354,11.736-3.039,17.128-4.481l15.113-3.851,2.072,3.383c-2.921,1.546-28.8,8.455-33.276,9.164l-1.037-4.215ZM66.74,191.187l.826,3.772c-2.358,1.385-29.129,8.45-33.2,9.134l-1.023-4.108ZM52.814,159.8l6.907,4.288L44.866,189.763,27.3,179.651a21.642,21.642,0,0,1,1.856-3.71c.361-.649.808-1.47,1.146-1.944l1.234-1.433,10.637,5.767L52.814,159.8ZM7.332,163.242c3.276,15.392,8.388,31.607,12.464,47.119,1.672,6.365,1.506,8.927,4.382,10.43,10.978,5.737,24.877,6.083,36.232,2.431,9.782-3.146,22.387-13.162,24.9-19.565.981-2.5-1.311-8.268-2.084-11.014-2.787-9.9-9.97-39.54-12.523-46.314L7.332,163.242Z" transform="translate(-4710.47 -20875.258)" fill="#fefefe" fill-rule="evenodd"/>
    <path id="Path_4878" data-name="Path 4878" d="M77.532,152.821l15,55.64c4.774-4.854,6.049-21.269,4.866-28.829a49.07,49.07,0,0,0-11.047-23.606C63.545,129.2,20.958,137.673,8.106,166.3a47.418,47.418,0,0,0-4.175,13.133c-1.543,12.034-.02,19.124,4.631,29.056,1.671,3.568,4.693,8.359,6.932,10.361,4.012,3.588,3.431,4.588,9.746,7.844L10.376,170.7l67.156-17.881Z" transform="translate(-4715.783 -20883.986)" fill="#ffc1a2" fill-rule="evenodd"/>
    <path id="Path_4882" data-name="Path 4882" d="M13.763,173.1l63.372-16.914c2.553,6.774,9.736,36.419,12.523,46.314.773,2.745,3.064,8.517,2.084,11.014-2.515,6.4-15.12,16.419-24.9,19.565-11.354,3.652-25.254,3.306-36.232-2.431-2.876-1.5-2.71-4.065-4.382-10.43-4.075-15.512-9.187-31.727-12.464-47.119Zm-2.268-1.27,14.865,55.99c-6.315-3.256-5.734-4.257-9.746-7.844-2.239-2-5.261-6.793-6.932-10.361-4.651-9.932-6.174-17.022-4.631-29.056a47.418,47.418,0,0,1,4.175-13.133c12.851-28.625,55.439-37.094,78.243-10.272a49.07,49.07,0,0,1,11.047,23.606c1.183,7.56-.092,23.975-4.866,28.829l-15-55.64L11.494,171.83Zm34.829-32.549c-25.648,2.98-46.905,25.766-43.44,54.852A49.222,49.222,0,1,0,100.6,182.186C97.465,157.136,74.815,135.971,46.323,139.281Z" transform="translate(-4716.901 -20885.115)" fill="#cf8662" fill-rule="evenodd"/>
    <path id="Path_4888" data-name="Path 4888" d="M42.368,154.848l3.508,2.24L33.265,179.4c-3.43-1.017-11.6-6.341-14.879-8.3l2.335-3.512c3.68,1.413,6.708,4.219,10.62,5.655ZM30.759,170.633l-10.637-5.767L18.888,166.3c-.339.474-.786,1.3-1.146,1.944a21.642,21.642,0,0,0-1.856,3.71l17.568,10.112,14.854-25.677L41.4,152.1,30.759,170.632Z" transform="translate(-4699.059 -20867.559)" fill="#cf8662" fill-rule="evenodd"/>
    <path id="Path_4890" data-name="Path 4890" d="M29.912,171.668c-3.912-1.436-6.94-4.242-10.62-5.655l-2.335,3.512c3.277,1.957,11.449,7.282,14.879,8.3l12.611-22.308-3.508-2.24Z" transform="translate(-4697.63 -20865.986)" fill="#fc9663" fill-rule="evenodd"/>
    <path id="Path_4891" data-name="Path 4891" d="M18.477,174.345l1.023,4.108c4.069-.684,30.84-7.748,33.2-9.134l-.826-3.772Z" transform="translate(-4695.603 -20849.617)" fill="#fc9663" fill-rule="evenodd"/>
    <path id="Path_4892" data-name="Path 4892" d="M19.525,178.015l1.037,4.215c4.473-.709,30.355-7.618,33.276-9.164l-2.072-3.383-15.113,3.851c-5.391,1.442-11.294,3.127-17.128,4.481Z" transform="translate(-4694.205 -20844.102)" fill="#fc9663" fill-rule="evenodd"/>
    <path id="Path_4894" data-name="Path 4894" d="M24.154,178.852l.837,3.91c3.388-.106,14.881-3.161,17.126-4.622l-.98-3.658-16.983,4.37Z" transform="translate(-4688.03 -20837.699)" fill="#fc9866" fill-rule="evenodd"/>
    <path id="Path_4896" data-name="Path 4896" d="M-2.818,176.924c.747,5.441,10.3,5.016,9.487-1.7C5.923,169.045-3.831,169.544-2.818,176.924Z" transform="translate(-4724.108 -20842.402)" fill="#fdae86" fill-rule="evenodd"/>
    <path id="Path_4949" data-name="Path 4949" d="M-2.858,173.646c.337,2.453,4.643,2.261,4.277-.766A2.177,2.177,0,1,0-2.858,173.646Z" transform="translate(-4717.922 -20890.949)" fill="#fdae86" fill-rule="evenodd"/>
    <path id="Path_4899" data-name="Path 4899" d="M38.245,139.619c-1.381.949-2.885,2.127-1.414,4.781a3.819,3.819,0,0,0,5.464,1.208C46.408,142.811,42.47,136.714,38.245,139.619Z" transform="translate(-4671.926 -20885.229)" fill="#fdae86" fill-rule="evenodd"/>
    <path id="Path_4951" data-name="Path 4951" d="M37.528,139.347c-.891.612-1.861,1.372-.912,3.084a2.464,2.464,0,0,0,3.525.779A2.334,2.334,0,1,0,37.528,139.347Z" transform="translate(-4667.973 -20898.057)" fill="#fdae86" fill-rule="evenodd"/>
  </g>
</svg>
