<svg xmlns="http://www.w3.org/2000/svg" width="183.396" height="142.584" viewBox="0 0 183.396 142.584">
  <g id="Group_322" data-name="Group 322" transform="matrix(0.966, 0.259, -0.259, 0.966, -752.579, 21060.608)">
    <path id="Path_4877" data-name="Path 4877" d="M48.938,279.4c-3.592-9.538-.987-16.686,5.179-20.686C69.9,248.477,87.854,268.8,74.472,282.786c-8.367,8.748-16.625,3.6-21.444,1.727-1.107,3.128.839,6.112-2.519,9.508-1.93,1.953-6.386,2.573-9.544,3.9.534,3.218,2.141,11.984,4.821,13.8,2.226.339,22.859-5.564,26.855-6.684,5.121-1.434,23.475-4.905,26.21-7.728.946-1.58-12.495-48.656-14-52.484-7.82-2.615-15.2,15.392-19.773-13.214-3.405.053-35.916,8.891-38.259,10.213-.831,3.3,4.388,20,5.531,24.416,1,3.853.158,2.81,3.192,4.264,6.285,3.012,5.843,5.738,7.734,7.067,1.23.864,3.923,1.116,5.657,1.832Z" transform="translate(-4684.587 -20761.494)" fill="#fefefe" fill-rule="evenodd"/>
    <path id="Path_4879" data-name="Path 4879" d="M73.308,284.79c-1.568,1.343-23.21,6.838-26.861,7.649.924,2.344,1.667,2.8,5.213,4.517a15.427,15.427,0,0,0,7.96,1.542c3.4-.226,39.257-10.165,44.256-11.524,6.132-1.667,9.1-1.771,12.854-5.656,7.991-8.274,2.245-21.228-7.726-22.746a15.054,15.054,0,0,0-8.209,1.267c-3.573,1.652-2.108,2.893-5.585,3.4.491-3.343,4.536-5.3,8.168-6.256a17.428,17.428,0,0,0-3.358-5.927c-.571-.669-1.415-1.461-2.113-2.176a6.892,6.892,0,0,0-2.36-1.971c-8.784-5.66-18.091-5.824-27.314-1.1-3.182,1.629-2.995,1.722-1.879,5.5L72.3,272.029c1.076,3.8,3.985,10.21,1.006,12.761Z" transform="translate(-4658.29 -20747.035)" fill="#fefefe" fill-rule="evenodd"/>
    <path id="Path_4880" data-name="Path 4880" d="M48.834,310.741c1.528-1.151,4.182-1.623,5.982-2.08,2.517-.638,4.626-1.466,7.045-1.659,1.278,3.249,2.763,11.776,4.263,13.689,3.948,5.035,23.324-6.188,27.845-3.816,1.835.963,1.8,2.6,5.039,4.275,1.947,1,4.792,1.426,6.591,2.485-21.941,9.526-46.7-.127-56.765-12.895Zm10.815-20.009c2.306.468,1.527-.419,4.12-1.528,4.961-2.123,10.939,1.234,10.168,7.757-.8,6.805-10.589,7.518-17.264,9.233-6.512,1.673-25.961,9.879-26.219-4.12-.087-4.714,2.334-6.868,5.656-8.137.24,2.534.179,4.64,2.288,5.753,1.307-2.441-3.516-13.41,6.748-18.618,7.433-3.772,16.19-.428,18.788,5.588-2.012,1.777-3.761,1.691-4.284,4.072Zm92.912-10.8c-3.632.957-7.677,2.913-8.168,6.256,3.478-.5,2.013-1.744,5.585-3.4a15.054,15.054,0,0,1,8.209-1.267c9.971,1.518,15.717,14.472,7.726,22.746-3.753,3.885-6.722,3.989-12.854,5.656-5,1.359-40.858,11.3-44.256,11.524a15.428,15.428,0,0,1-7.96-1.542c-3.545-1.715-4.289-2.173-5.213-4.517,3.65-.811,25.293-6.306,26.861-7.649,2.979-2.551.07-8.959-1.006-12.761l-5.949-20.724c-1.116-3.779-1.3-3.872,1.879-5.5,9.224-4.721,18.53-4.557,27.314,1.1a6.892,6.892,0,0,1,2.36,1.971c.7.715,1.542,1.507,2.113,2.176a17.428,17.428,0,0,1,3.358,5.927ZM75.915,293.007c-1.254-1.713-2.877-3.641-4.091-5.112-1.735-.716-4.427-.968-5.657-1.832-1.891-1.329-1.449-4.055-7.734-7.067-3.034-1.454-2.195-.411-3.192-4.264-1.143-4.417-6.362-21.112-5.531-24.416,2.342-1.323,34.854-10.16,38.259-10.213,4.57,28.606,11.953,10.6,19.773,13.214,1.5,3.828,14.942,50.9,14,52.484-2.735,2.822-21.089,6.293-26.21,7.728-4,1.12-24.63,7.023-26.855,6.684-2.68-1.815-4.287-10.582-4.821-13.8,3.158-1.325,7.614-1.945,9.544-3.9,3.358-3.4,1.412-6.38,2.519-9.508ZM24.236,266.748c.586-1.3-2.244-10.367.058-17.029,5.156-14.917,26.417-21.062,38.465-5.664l-2.317,1.015c-3.245,1.112-11.335,2.184-12.621,4.65-1.206,5,5.008,21.479,6.147,27.755-4.322.092-5.816.074-9.33,1.82-5.249,2.609-19.452,7.037-25.925,3.572-10.5-5.621-9.693-22.076,2.5-25.435.183,3.092.2,8.064,3.025,9.316Zm84.729-19.711c2.422.3,1.593-.564,4.247-1.688a7.171,7.171,0,0,1,10.008,5.206c1.355,7.5-5.2,9.109-11.417,10.2-2.514-9.906-1.131-7.933-8.309-12.654-3.883-2.554-9.055-5.343-12.372-7.926a13.419,13.419,0,0,1,12.737-4.309c5.58.986,7.337,3.463,9.6,7.034-2.189,1.918-3.645,1.414-4.5,4.14Zm-51.391-11.1c15.012-8.37,30.782-12.832,48.554-4.67a42.516,42.516,0,0,1,9.829,5.6c8.491,6.316,16.074,15.4,18.622,26.849-12.385-.985-14.392,2.475-20.233,4.514a14.189,14.189,0,0,1-1.8-5.626c6.684-1.123,11.129-2.584,12.458-8.408a10.636,10.636,0,0,0-1.646-8.061c-3.072-4.253-6.058-1.188-8.757-4.824-8.824-11.889-20.624-7.964-25.137-2.393-3.1-1.394-1.789-1.222-5.654-.126-4.778,1.355-15.065,4.613-18.861,4.777a27.775,27.775,0,0,0-3.423-4.124c-1.69-1.6-2.679-1.534-3.952-3.509Zm79.357,28.118c-1.736-4.274-2.362-7.137-4.639-11.383-5.719-10.667-13.9-18.067-25.129-23.052a53.545,53.545,0,0,0-27.908-3.956c-14.674,1.938-19.9,7.808-22.975,9.077-1.541.636-23.964-6.977-32.74,11.749a26.388,26.388,0,0,0-1.825,6.116c-.843,3.985-.375,2.445-3.97,4.11-6.247,2.893-11.022,12.852-6.183,21.554,6.928,12.457,20.037,6.66,22.948,6.538l1.464,7.04c-5.192,2.051-10.012,7.9-6.144,15.083,3.968,7.371,8.4,4.97,16.595,4.283,13.879,15.846,36.5,23.068,58.442,14.774,10.871-4.109,6.9-3.142,19.542-6.388,7.492-1.924,36.7-9.144,40.6-11.9a15.709,15.709,0,0,0,5.4-18.426c-2.594-6.575-7.305-9.455-15.991-9.895-2.344-8.905-11.54-12.566-17.489-15.326Z" transform="translate(-4707.474 -20769.988)" fill="#cf8662" fill-rule="evenodd"/>
    <path id="Path_4881" data-name="Path 4881" d="M23.19,261.114c-2.826-1.252-2.842-6.224-3.025-9.316-12.19,3.359-13,19.814-2.5,25.435,6.473,3.466,20.676-.963,25.925-3.572,3.514-1.747,5.008-1.728,9.33-1.82-1.139-6.276-7.353-22.757-6.147-27.755,1.286-2.466,9.376-3.538,12.621-4.65l2.317-1.015c-12.049-15.4-33.309-9.252-38.465,5.664-2.3,6.662.528,15.732-.058,17.029Z" transform="translate(-4706.427 -20764.354)" fill="#fefefe" fill-rule="evenodd"/>
    <path id="Path_4883" data-name="Path 4883" d="M47.719,259.733c.523-2.381,2.272-2.3,4.284-4.072-2.6-6.016-11.354-9.36-18.788-5.588-10.263,5.208-5.441,16.177-6.748,18.618-2.109-1.113-2.048-3.219-2.288-5.753-3.321,1.268-5.743,3.422-5.656,8.137.258,14,19.707,5.793,26.219,4.12,6.675-1.715,16.459-2.428,17.264-9.233.771-6.523-5.207-9.88-10.168-7.757-2.592,1.109-1.813,2-4.12,1.528Z" transform="translate(-4695.543 -20738.99)" fill="#fefefe" fill-rule="evenodd"/>
    <path id="Path_4884" data-name="Path 4884" d="M30.142,234.962c1.272,1.975,2.262,1.909,3.952,3.509a27.774,27.774,0,0,1,3.423,4.124c3.8-.163,14.084-3.422,18.861-4.776,3.865-1.1,2.555-1.268,5.654.126,4.513-5.571,16.313-9.5,25.137,2.393,2.7,3.637,5.685.571,8.757,4.824a10.636,10.636,0,0,1,1.646,8.061c-1.329,5.824-5.774,7.285-12.458,8.408a14.189,14.189,0,0,0,1.8,5.626c5.841-2.039,7.848-5.5,20.233-4.514C104.6,251.3,97.016,242.21,88.525,235.894a42.519,42.519,0,0,0-9.829-5.6c-17.772-8.162-33.542-3.7-48.554,4.67Z" transform="translate(-4680.042 -20769.008)" fill="#febe9d" fill-rule="evenodd"/>
    <path id="Path_4885" data-name="Path 4885" d="M54.026,257.975c.571,2.875,1.113,2.874-.1,5.67-3.771,1.539-5.473.152-5.9-3.968-2.924.288-2.469.219-4.523-.764-.821-3.618,1.63-8.358,4.334-10.027C51.681,248.524,62.283,254.6,54.026,257.975Zm-17.674.166a14.055,14.055,0,0,0,27.959-2.922C62.869,237.769,34.765,239,36.352,258.141Z" transform="translate(-4671.844 -20746.41)" fill="#ffbc9a" fill-rule="evenodd"/>
    <path id="Path_4886" data-name="Path 4886" d="M26.4,264.01c10.064,12.768,34.824,22.42,56.765,12.895-1.8-1.059-4.644-1.48-6.591-2.485-3.238-1.671-3.2-3.312-5.039-4.275-4.52-2.372-23.9,8.851-27.845,3.816-1.5-1.913-2.985-10.44-4.263-13.689-2.42.193-4.529,1.021-7.045,1.659-1.8.456-4.454.928-5.982,2.08Z" transform="translate(-4685.037 -20723.258)" fill="#febe9d" fill-rule="evenodd"/>
    <path id="Path_4887" data-name="Path 4887" d="M44.516,234.237c3.316,2.583,8.489,5.372,12.372,7.926,7.178,4.721,5.794,2.748,8.309,12.654,6.213-1.089,12.772-2.7,11.417-10.2a7.171,7.171,0,0,0-10.008-5.206c-2.654,1.124-1.825,1.993-4.247,1.688.854-2.726,2.31-2.222,4.5-4.14-2.267-3.571-4.024-6.048-9.6-7.034A13.419,13.419,0,0,0,44.516,234.237Z" transform="translate(-4660.867 -20764.053)" fill="#fefefe" fill-rule="evenodd"/>
    <path id="Path_4889" data-name="Path 4889" d="M37.338,259.321C35.752,240.183,63.855,238.949,65.3,256.4a14.055,14.055,0,0,1-27.959,2.922ZM37.18,265.5c1.214,1.471,2.837,3.4,4.091,5.112,4.818,1.874,13.077,7.021,21.444-1.727,13.381-13.991-4.574-34.309-20.356-24.071C36.194,248.811,33.588,255.958,37.18,265.5Z" transform="translate(-4672.83 -20747.59)" fill="#cf8662" fill-rule="evenodd"/>
    <path id="Path_4893" data-name="Path 4893" d="M44.752,252.438s-4.5,4.538-3.574.312a21.62,21.62,0,0,1,3.248-5.426c2.02.259,6.01,1.723,6.653,4.482-1.072.81-1.387.593-3.83-.128.524,2.792,1.691,5.147,1.136,7.477-2.791-.421-1.871.875-3.633-6.716Zm5.239,2.134c8.257-3.379-2.345-9.451-6.183-9.089-2.7,1.669-5.155,6.41-4.334,10.027,2.054.984,1.6,1.053,4.523.764.422,4.12,2.124,5.507,5.9,3.968C51.1,257.446,50.562,257.447,49.99,254.572Z" transform="translate(-4667.808 -20743.006)" fill="#cf8662" fill-rule="evenodd"/>
    <path id="Path_4895" data-name="Path 4895" d="M30.089,270.412c2.626-6.133-6.606-9.189-8.993-3.882C18.105,273.179,27.651,276.106,30.089,270.412Z" transform="translate(-4692.876 -20718.545)" fill="#feb38d" fill-rule="evenodd"/>
    <path id="Path_4897" data-name="Path 4897" d="M43.757,251.377c1.761,7.591.841,6.295,3.633,6.716.555-2.33-.612-4.685-1.136-7.477,2.443.721,2.758.938,3.83.128-.643-2.759-4.633-4.223-6.653-4.482a21.62,21.62,0,0,0-3.248,5.426c-.926,4.227,3.57-.309,3.574-.312Z" transform="translate(-4666.814 -20741.945)" fill="#fcfcfc" fill-rule="evenodd"/>
    <path id="Path_4898" data-name="Path 4898" d="M61.226,236.812c.99,1.229,1.3,1.627,3,1.527,2.548-.051,4.679-2.434,2.57-5.579-1.379-2.056-4.455-2.617-6.157.442A3.866,3.866,0,0,0,61.226,236.812Z" transform="translate(-4639.652 -20762.223)" fill="#ffb793" fill-rule="evenodd"/>
    <path id="Path_4900" data-name="Path 4900" d="M62.452,225.67a2.125,2.125,0,0,0,0,3.61,2.22,2.22,0,0,0,3.355-2.225C65.7,225.159,63.489,225,62.452,225.67Z" transform="translate(-4638.289 -20769.898)" fill="#feb692" fill-rule="evenodd"/>
    <rect id="Rectangle_462" data-name="Rectangle 462" width="25.674" height="1.435" rx="0.717" transform="matrix(0.966, -0.259, 0.259, 0.966, -4649.842, -20513.404)" fill="#fb9461"/>
    <rect id="Rectangle_463" data-name="Rectangle 463" width="10.878" height="1.435" rx="0.717" transform="matrix(0.966, -0.259, 0.259, 0.966, -4648.142, -20507.736)" fill="#fb9461"/>
    <rect id="Rectangle_464" data-name="Rectangle 464" width="10.878" height="0.717" rx="0.358" transform="matrix(0.966, -0.259, 0.259, 0.966, -4633.935, -20463.678)" fill="#fb9461"/>
    <rect id="Rectangle_465" data-name="Rectangle 465" width="3.382" height="0.717" rx="0.358" transform="matrix(0.966, -0.259, 0.259, 0.966, -4620.097, -20467.189)" fill="#fb9461"/>
  </g>
</svg>
