<svg xmlns="http://www.w3.org/2000/svg" viewBox="0 0 763 762"><defs><style>.cls-1{fill:#ff6010;}.cls-2{fill:#440c0c;}</style></defs><g id="Layer_2" data-name="Layer 2"><g id="Layer_1-2" data-name="Layer 1"><polygon class="cls-1" points="295 145.3 295 152.98 275.49 143.27 237 150.94 237 143.72 276.15 135.92 295 145.3"/><rect class="cls-2" x="513" y="341" width="28" height="28"/><rect class="cls-2" x="546" y="341" width="28" height="28"/><rect class="cls-2" x="513" y="307" width="28" height="28"/><rect class="cls-2" x="546" y="307" width="28" height="28"/><polygon class="cls-1" points="552.78 215.21 543.65 203.92 528.68 211.18 519.34 215.7 482.13 175.87 450.61 142.14 442.87 133.85 429.36 119.38 408.5 128.81 292 181.47 292 213.84 275 221.53 275 151.29 242 157.96 242 199.47 195.69 220.76 189.59 228.43 189.57 228.44 148.89 279.5 78.72 367.58 86.28 381 234.4 381 426.81 152.9 428.8 150.53 429.76 151.56 468.36 192.87 498.92 225.59 404.98 271.1 326.46 368.03 333.89 381 418.47 381 523.26 251.65 537.03 234.65 542.36 228.08 666.24 381 687.1 381 552.78 215.21"/><path class="cls-2" d="M263.94,65.51a28,28,0,0,1-1.77,9.79A38.7,38.7,0,0,1,257,84a55.63,55.63,0,0,0-6,9.67,27.92,27.92,0,0,0-2.48,11.51,54.71,54.71,0,0,0,1.1,11.21,29.48,29.48,0,0,0,1.76,5.41,16.43,16.43,0,0,0,1.46,2.46,5.62,5.62,0,0,0,2.12,1.85,5.8,5.8,0,0,1-1.4-2.26,14.92,14.92,0,0,1-.73-2.53,31.07,31.07,0,0,1-.53-5.27,74.83,74.83,0,0,1,.53-10.6,26.91,26.91,0,0,1,2.88-9.54,68.51,68.51,0,0,1,5.77-8.7c1.07-1.49,2.16-3.07,3.15-4.74a30,30,0,0,0,2.48-5.43,28.53,28.53,0,0,0,1.18-11.71,33.52,33.52,0,0,0-2.92-11.08,23.74,23.74,0,0,0-6.94-8.79A33.37,33.37,0,0,1,263.94,65.51Z"/><path class="cls-2" d="M273,68.42a29.05,29.05,0,0,1-.05,9.63,28.86,28.86,0,0,1-3.5,8.76c-1.6,2.87-3.43,5.71-5.24,8.66a69.82,69.82,0,0,0-5,9.4,31.63,31.63,0,0,0-1.69,5.31,18.61,18.61,0,0,0-.43,2.82c0,.48-.1,1-.1,1.43v1.36a39.18,39.18,0,0,0,6.14,20.14,69.09,69.09,0,0,1-1.77-10.09,48.82,48.82,0,0,1-.05-9.89c.49-6.24,4.05-11.79,7.57-17.62,1.76-2.92,3.6-5.89,5.17-9.13.4-.8.77-1.62,1.11-2.47s.66-1.72,1-2.6.49-1.82.72-2.73.3-1.88.36-2.82a27.48,27.48,0,0,0-1.61-10.81,31.89,31.89,0,0,0-5.07-9.23A50.63,50.63,0,0,1,273,68.42Z"/><path class="cls-2" d="M206,545.22a91.89,91.89,0,0,1-61.2,22.95,76,76,0,0,1-24.22-3.71,61.54,61.54,0,0,1-19.84-11A62.29,62.29,0,0,1,83.23,531q-5.78-12.78-5.78-29.16a65.84,65.84,0,0,1,5.82-27.14,62.55,62.55,0,0,1,36.94-34.1,74.92,74.92,0,0,1,25-4.05q17.15,0,29.86,6.92t22,21.4l-15.84,11.76q-5.68-12.22-13.88-18.35a30.51,30.51,0,0,0-18.72-6.11q-16.11,0-25,13.12t-8.84,37.12q0,21.82,10,35.41t25.9,13.6a33.32,33.32,0,0,0,11.18-1.84,38.54,38.54,0,0,0,10.15-5.5V509h34Z"/><path class="cls-2" d="M210.37,565l43.26-126h34.11l46.18,126H296.23L283,528H241L228.5,565Zm36-53h31l-16.28-45.06Z"/><path class="cls-2" d="M349,565V439h32.27L409.51,507,437.56,439H472V565H437V482.16L403.13,565h-3.38L367,485.84V565Z"/><path class="cls-2" d="M521,565V505.35L483.86,439h39.51l24.7,48.25L574.76,439h18.43L557,503.46V565Z"/><path class="cls-2" d="M613.77,533q3.87,9.13,9.65,14a19.27,19.27,0,0,0,12.74,4.89,16.71,16.71,0,0,0,11.76-4.23A13.8,13.8,0,0,0,652.53,537a14.27,14.27,0,0,0-3.48-9.36q-3.48-4.18-11.38-8.52l-5-2.72q-17.11-9.13-20.6-12.14-7.14-6.21-10.11-12.37a32.92,32.92,0,0,1-3-14.44q0-18.15,12.18-29.68t31.75-11.52q13.72,0,24.08,6.25a42.53,42.53,0,0,1,16.18,18l-14.3,10q-3.76-9-9.55-13.55a21.71,21.71,0,0,0-13.78-4.51,15.46,15.46,0,0,0-11.05,4.13,13.67,13.67,0,0,0-4.38,10.35,13.18,13.18,0,0,0,3.63,9.22q3.62,4,14,9.22l2.35,1.22q19.27,9.6,23.23,12.89a36.69,36.69,0,0,1,10,12.09,33.79,33.79,0,0,1,3.06,14.82q0,18.52-12.93,30.19t-33.64,11.67q-14.76,0-26.1-6.49a42.69,42.69,0,0,1-17.27-18.34ZM620,606.77v-11.1q7.37,1.7,13.55,2.68a66,66,0,0,0,9.87,1c3.78,0,6.58-.65,8.41-1.93a6.64,6.64,0,0,0,2.74-5.79,6.78,6.78,0,0,0-3-6.11q-3-2-9.53-2c-1.26,0-2.26,0-3,.05s-1.4,0-2,0V565h7v10h2.7q10.14,0,15.44,4.51t5.3,13.24q0,8.91-6,13.67T644,611.18a60.83,60.83,0,0,1-10.79-1.13A120.84,120.84,0,0,1,620,606.77Z"/><path class="cls-2" d="M631.73,762H131.27A131.27,131.27,0,0,1,0,630.73V131.27A131.27,131.27,0,0,1,131.27,0H631.73A131.27,131.27,0,0,1,763,131.27V630.73A131.27,131.27,0,0,1,631.73,762ZM11,131V631A120,120,0,0,0,131,751H631A120,120,0,0,0,751,631V131A120,120,0,0,0,631,11H131A120,120,0,0,0,11,131Z"/><path class="cls-1" d="M57.5,679.88c3-1.84,6.15-3.56,9.28-5.23s6.32-3.28,9.51-4.86c6.4-3.12,12.88-6.11,19.46-8.88q19.73-8.35,40.32-14.79A398.91,398.91,0,0,1,221,629.19l5.45-.44c1.81-.14,3.64-.2,5.46-.31l5.47-.28c1.82-.07,3.65-.08,5.47-.13l5.49-.1c1.83,0,3.66.05,5.49.07l5.49.09c1.83.07,3.66.17,5.5.26l5.5.27c1.83.13,3.66.3,5.49.45l5.49.48c1.81.19,3.58.42,5.37.63l10.72,1.3,5.36.65,5.34.78c7.12,1,14.26,2,21.33,3.34l10.63,1.85c3.54.63,7.06,1.36,10.59,2s7.06,1.37,10.56,2.14l10.51,2.29c3.51.75,7,1.56,10.48,2.37l10.45,2.43L434,659.52c3.43.87,6.83,1.63,10.25,2.46l5.13,1.21c1.71.41,3.41.75,5.12,1.13,3.41.74,6.82,1.51,10.24,2.22s6.82,1.31,10.23,2l2.56.51,2.56.42,5.12.85,5.13.84c1.71.29,3.42.46,5.13.69l10.28,1.29,10.3.93,2.58.24c.86.09,1.72.09,2.58.14l5.16.23,5.18.23c.86,0,1.72.1,2.58.1l2.6,1,10.39,0c1.73,0,3.47,0,5.21-.11l5.22-.17c27.9-.89,56-4.12,84-7.89s56-8.55,84.05-13.67c-13.35,4.87-26.93,9.1-40.6,13.08s-27.48,7.54-41.37,10.86c-27.83,6.44-56,11.74-85,14.31l-5.42.48c-1.8.15-3.61.34-5.43.4l-10.94.52-2.73.13c-.92,0-1.83,0-2.75,0l-5.49,1-5.5,0c-.91,0-1.83,0-2.74,0l-2.75-.14-11-.54c-1.83-.11-3.65-.32-5.47-.49l-5.46-.55c-1.82-.19-3.65-.32-5.45-.58l-5.42-.75-5.43-.75-2.71-.38-2.68-.46c-3.58-.61-7.17-1.23-10.74-1.88S453.5,687,450,686.26c-1.77-.37-3.55-.71-5.31-1.11L439.38,684c-3.5-.81-7-1.56-10.51-2.4q-10.46-2.52-20.82-5.13l-20.68-5.14c-13.73-3.4-27.44-6.75-41.2-9.68-3.43-.75-6.86-1.56-10.3-2.26l-10.34-2.07c-3.44-.69-6.89-1.4-10.35-2s-6.91-1.25-10.37-1.88l-5.18-.94-5.21-.82L284,650c-1.73-.27-3.48-.56-5.2-.8l-5.11-.67c-1.7-.22-3.4-.46-5.11-.66l-5.14-.49c-1.72-.16-3.43-.34-5.15-.48l-5.16-.31c-1.72-.1-3.44-.22-5.17-.3l-5.18-.16c-1.73,0-3.46-.14-5.19-.16h-5.19c-1.73,0-3.47,0-5.2,0l-5.2.14a464.53,464.53,0,0,0-83.13,10.22c-13.77,2.85-27.44,6.32-41,10.2q-10.19,2.93-20.28,6.24l-5,1.67-5,1.74C64.16,677.39,60.82,678.59,57.5,679.88Z"/></g></g></svg>