<svg xmlns="http://www.w3.org/2000/svg" width="374.53" height="356.559" viewBox="0 0 374.53 356.559">
  <g id="Group_342" data-name="Group 342" transform="translate(5126.93 18483.137)">
    <g id="Group_329" data-name="Group 329" transform="translate(-53.313 -96.311)">
      <g id="Ellipse_17" data-name="Ellipse 17" transform="translate(-5030.086 -18361.268)" fill="#fdae86" stroke="#cf8662" stroke-width="9">
        <circle cx="165.5" cy="165.5" r="165.5" stroke="none"/>
        <circle cx="165.5" cy="165.5" r="161" fill="none"/>
      </g>
      <path id="Path_5020" data-name="Path 5020" d="M-83.143,122.369a6.154,6.154,0,0,0-4.094-2.08l-42.666.2c-4.68-.393-5.105-1.234-8.735-3.831-.73-.523-3.984-3.479-5.816-9.975-1.19-4.215-1.19-11.435-1.19-15.8,0-15.932,1.086-29.572,0-38.857-44.61-2.372-92.236-.042-137.264-.268-25.993-.13-18.518,5.148-18.518,64.567l-.024,192.662c-.078,11.608-.545,8.346,0,14.121s-.215,6.924,2.18,8.977a11.16,11.16,0,0,0,7.63,3.1c37.731,2.006,194.113.447,208.668-.342-.226-.664,3.109-.135,3.091-4.206-.032-7.074-.578-46.557-.673-52.923-.546-36.667-2.129-122.126-.753-149.745.187-3.763-.353-3.674-1.836-5.591Z" transform="translate(-4669.698 -18397.891)" fill="#fafafc" stroke="#cf8662" stroke-width="5" fill-rule="evenodd"/>
      <path id="Path_5019" data-name="Path 5019" d="M-226.154,148.186l12.489-7.146a128.177,128.177,0,0,1,21.718-3.883c10.725-.91,22.339.086,28.161,3.326,2.9,1.616,11.105,3.886,14.483,6.339l12.038,10.318c4.9,4.6,10.042,9.774,13.038,15.58l2.841,4.484c.143.244.324.556.46.809,4.379,8.122,7.737,23.216,7.449,37.389-.191,9.418-.8,15.4-6.161,29.123s-18.159,20.311-24.23,25.728c-8.3,5.823-22.215,11.211-31.487,12.193a103.63,103.63,0,0,1-35.876-2.827c-4.36-1.1-14.848-6.326-26.282-17.528s-14.9-19.119-19.456-27.279c-.129-.23-.341-.516-.47-.754-5.605-10.4-5.3-26.682-2.716-38.183,1.526-6.793,6.1-19.09,12.7-27.9A88.982,88.982,0,0,1-226.154,148.186Zm132.172,72.051c1.092-13.679.734-20.234-1.574-31.162s-10.363-24.617-10.517-24.825a99.922,99.922,0,0,0-14.72-19.943,108.065,108.065,0,0,0-21.69-17.557c-6.107-3.943-12.111-7-29.431-8.812s-37.089.431-39.847,1.572c0,0-16.588,6.315-28.237,13.5s-10.67,6.482-18.36,15.25c-5.231,6.439-10.652,14.792-10.867,15.1-3.708,4.791-2.456,2.265-4.246,7.94-.9,2.842-7.013,13.716-7.527,22.7-.2,3.539-.215,7.63-.312,11.231-.734,27.415,3.924,33.414,4.688,36.21,1.958,7.163,4.717,11.222,8.505,16.941,0,0,8.577,13.6,16.851,21.926a71.375,71.375,0,0,0,19.552,13.422c5.7,2.656,11.425,3.817,19.933,7.012,13.541,3.557,41.735,4.927,55.328-2.548A231.542,231.542,0,0,0-132.5,286.364c1.725-.953,5.053-2.308,8.223-.47,4.587,2.659,36.924,39.75,37.092,39.562,1.976,1.86,18.172,16.988,22.942,17.973,10.008,2.068,13.417-7.439,12.971-11.248-.587-5.005-2.736-5.854-5.154-8.788-.228-.276-.926-1.084-1.162-1.359L-70.549,309.1c-.194-.184-.462-.435-.653-.625l-2.368-2.694c-.17-.176-.406-.453-.581-.62l-22.87-22.784c-.158-.174-.4-.448-.564-.612l-7.141-6.512c-4.949-5.474-9.931-6.676-2.3-16.451C-104.906,256.092-95.074,233.915-93.983,220.236Z" transform="translate(-4672.293 -18397.891)" fill="#fdae86" stroke="#cf8662" stroke-width="5" fill-rule="evenodd"/>
      <path id="Path_5009" data-name="Path 5009" d="M-265.35,106.066c.13-7.117,1.017-6.6-4.314-6.983-.121-2.715.732-4.509-.478-4.827a13.173,13.173,0,0,0-7.1,1.29c-2.677,1.433-2.762,2.258-3.607,4.443-1.845,4.759-1.789,12.342,9.22,10.321,3.917-.719,4.842-2.77,6.282-4.243Z" transform="translate(-4616.94 -18287.602)" fill="#cf8662" fill-rule="evenodd"/>
      <path id="Path_5010" data-name="Path 5010" d="M-260.851,108.742c4.129,1.052,7.378,1.079,10.883-1.078s3.238-6.262,3.137-7.549c-.085-1.388-2.407-.753-5.791-.991-.082-1.855-.03-3.938-1.464-4.6-2-.95-6.251.941-6.251.941a9.981,9.981,0,0,0-4.632,6.413c-.317,1.761-.011,5.811,4.118,6.863Z" transform="translate(-4574.706 -18287.623)" fill="#cf8662" fill-rule="evenodd"/>
      <path id="Path_5012" data-name="Path 5012" d="M-282.854,100.685c5.456-.425,13.324-3.364,15.1-4.592a5.9,5.9,0,0,0,.7-.465c2.206-2.148,1.683-3.338,1.832-4.925-10.2-.572-7.592,1.757-9.591,3.014-2.687,1.69-4.93.741-7.121,4.515l-.918,2.452Z" transform="translate(-4623.36 -18299.996)" fill="#cf8662" fill-rule="evenodd"/>
      <path id="Path_5013" data-name="Path 5013" d="M-262.2,92.969c1.7,3.607-.517,1.1,2.776,3.357,4.783,3.279,11.219,3.408,11.219,3.408a10.148,10.148,0,0,0,3.441,0,2.535,2.535,0,0,0,1.663-1.447c-7.089-1.124-12.454-6.192-12.483-6.208C-262.539,87.933-261.963,92.782-262.2,92.969Z" transform="translate(-4568.336 -18299.205)" fill="#cf8662" fill-rule="evenodd"/>
      <g id="Group_327" data-name="Group 327" transform="translate(235.914 164.732)">
        <path id="Path_5018" data-name="Path 5018" d="M.226,18.306C2.517,35,31.818,33.69,29.328,13.1,27.037-5.862-2.882-4.332.226,18.306Z" transform="matrix(0.966, 0.259, -0.259, 0.966, -5301.82, -18367.168)" fill="#fdae86" fill-rule="evenodd"/>
        <path id="Path_5017" data-name="Path 5017" d="M.1,8.252C1.135,15.776,14.343,15.187,13.221,5.9,12.188-2.642-1.3-1.953.1,8.252Z" transform="matrix(0.966, 0.259, -0.259, 0.966, -5244.948, -18506.09)" fill="#fdae86" fill-rule="evenodd"/>
        <path id="Path_5016" data-name="Path 5016" d="M6.192,2.348C1.956,5.26-2.657,8.873,1.855,17.013a11.716,11.716,0,0,0,16.761,3.7C31.233,12.141,19.154-6.56,6.192,2.348Z" transform="matrix(0.966, 0.259, -0.259, 0.966, -4971.819, -18516.688)" fill="#fdae86" fill-rule="evenodd"/>
        <path id="Path_5015" data-name="Path 5015" d="M3.995,1.515c-2.733,1.878-5.709,4.209-2.8,9.46a7.558,7.558,0,0,0,10.813,2.39C20.149,7.832,12.356-4.232,3.995,1.515Z" transform="matrix(0.966, 0.259, -0.259, 0.966, -4949.922, -18551.559)" fill="#fdae86" fill-rule="evenodd"/>
      </g>
      <path id="Path_5022" data-name="Path 5022" d="M8,0h98a4,4,0,0,1,0,8H8A4,4,0,0,1,8,0Z" transform="translate(-4946.086 -18313.268)" fill="#cf8662"/>
      <path id="Path_5021" data-name="Path 5021" d="M6.9,0H48.992a4,4,0,0,1,0,8H6.9a4,4,0,0,1,0-8Z" transform="translate(-4946.086 -18292.268)" fill="#cf8662"/>
      <path id="Path_5025" data-name="Path 5025" d="M-11.728-39.77,51.4,27.668c2.209,0,0,.111,0,2.32s-20.491-2.32-22.7-2.32l-31.979-1.16c-2.209,0-9.941-24.3-9.941-26.508S-13.937-39.77-11.728-39.77Z" transform="translate(-4802.571 -18305.268)" fill="#cf8662"/>
      <path id="Path_5023" data-name="Path 5023" d="M6.9,0H36.721a4,4,0,0,1,4,4c0,2.209,8.327,4,6.118,4H6.9a4,4,0,0,1,0-8Z" transform="translate(-4946.086 -18108.383)" fill="#cf8662"/>
      <ellipse id="Ellipse_18" data-name="Ellipse 18" cx="12" cy="6" rx="12" ry="6" transform="translate(-4872.086 -18172.268)" fill="#cf8662"/>
    </g>
    <g id="Ellipse_17-2" data-name="Ellipse 17" transform="translate(-5083.399 -18457.578)" fill="#fdae86" stroke="#cf8662" stroke-width="9">
      <circle cx="165.5" cy="165.5" r="165.5" stroke="none"/>
      <circle cx="165.5" cy="165.5" r="161" fill="none"/>
    </g>
    <path id="Path_5020-2" data-name="Path 5020" d="M-83.143,122.369a6.154,6.154,0,0,0-4.094-2.08l-42.666.2c-4.68-.393-5.105-1.234-8.735-3.831-.73-.523-3.984-3.479-5.816-9.975-1.19-4.215-1.19-11.435-1.19-15.8,0-15.932,1.086-29.572,0-38.857-44.61-2.372-92.236-.042-137.264-.268-25.993-.13-18.518,5.148-18.518,64.567l-.024,192.662c-.078,11.608-.545,8.346,0,14.121s-.215,6.924,2.18,8.977a11.16,11.16,0,0,0,7.63,3.1c37.731,2.006,194.113.447,208.668-.342-.226-.664,3.109-.135,3.091-4.206-.032-7.074-.578-46.557-.673-52.923-.546-36.667-2.129-122.126-.753-149.745.187-3.763-.353-3.674-1.836-5.591Z" transform="translate(-4723.012 -18494.201)" fill="#fafafc" stroke="#cf8662" stroke-width="5" fill-rule="evenodd"/>
    <g id="Group_340" data-name="Group 340" transform="translate(-798 -68.213)">
      <g id="Path_5039" data-name="Path 5039" transform="translate(-4211.936 -18312)" fill="#fdae86">
        <path d="M 222.6607513427734 229.8568725585938 C 222.3456573486328 229.8568725585938 222.0737609863281 229.8035430908203 221.8295593261719 229.6937408447266 C 215.8022613525391 226.9860076904297 208.7742156982422 221.6546020507813 200.34326171875 213.3946380615234 C 192.9225921630859 206.1244354248047 185.6839599609375 197.8307342529297 179.2974548339844 190.5134124755859 C 167.2863159179688 176.7515716552734 161.7912902832031 170.6673431396484 157.4062957763672 170.6673431396484 C 156.5302886962891 170.6673431396484 155.6936950683594 170.9105682373047 154.9869842529297 171.3708038330078 C 147.7431945800781 176.08837890625 137.6524200439453 180.7427825927734 127.3018569946289 184.1406097412109 C 121.8529891967773 185.9293823242188 116.4921569824219 187.3298034667969 111.3683242797852 188.3030090332031 C 105.9383926391602 189.3343811035156 100.9120254516602 189.8573150634766 96.42888641357422 189.8573150634766 C 90.087890625 189.8573150634766 83.75178527832031 189.2186737060547 77.59651947021484 187.9591064453125 C 71.59925842285156 186.7319030761719 65.70015716552734 184.9007110595703 60.06305694580078 182.5164489746094 C 54.52765655517578 180.1751708984375 49.18855667114258 177.2771759033203 44.19398880004883 173.9029388427734 C 39.24612426757813 170.5602416992188 34.59328842163086 166.7212677001953 30.36468887329102 162.49267578125 C 26.13608932495117 158.2641143798828 22.29712295532227 153.6112365722656 18.95438957214355 148.6634063720703 C 15.58015537261963 143.6688690185547 12.68215560913086 138.3297729492188 10.34085559844971 132.7943725585938 C 7.956589221954346 127.157341003418 6.125389099121094 121.2582397460938 4.898189067840576 115.2609786987305 C 3.638622283935547 109.1057434082031 2.999989032745361 102.7696380615234 2.999989032745361 96.42867279052734 C 2.999989032745361 90.08770751953125 3.638622283935547 83.75157165527344 4.898189067840576 77.59634399414063 C 6.125389099121094 71.59907531738281 7.956589221954346 65.70000457763672 10.34085559844971 60.06294250488281 C 12.68215560913086 54.52754211425781 15.58015537261963 49.18844223022461 18.95438957214355 44.19390869140625 C 22.29712295532227 39.24604034423828 26.13608932495117 34.59320831298828 30.36468887329102 30.3646411895752 C 34.59328842163086 26.13604164123535 39.24612426757813 22.29707527160645 44.19398880004883 18.95437431335449 C 49.18855667114258 15.5801420211792 54.52765655517578 12.68214130401611 60.06305694580078 10.34087467193604 C 65.70011901855469 7.9565749168396 71.59925842285156 6.125408172607422 77.59651947021484 4.898208618164063 C 83.75178527832031 3.638641834259033 90.087890625 3.000008344650269 96.42888641357422 3.000008344650269 C 102.769889831543 3.000008344650269 109.1059875488281 3.638641834259033 115.2612228393555 4.898208618164063 C 121.2585220336914 6.125408172607422 127.1576232910156 7.9565749168396 132.7946929931641 10.34087467193604 C 138.3300933837891 12.68214130401611 143.6692199707031 15.5801420211792 148.6637573242188 18.95437431335449 C 153.6116180419922 22.29707527160645 158.2644958496094 26.13604164123535 162.4930572509766 30.3646411895752 C 166.7216491699219 34.59320831298828 170.5606231689453 39.24604034423828 173.9033508300781 44.19390869140625 C 177.277587890625 49.18844223022461 180.1755828857422 54.52754211425781 182.5168914794922 60.06294250488281 C 184.9011535644531 65.70000457763672 186.7323608398438 71.59907531738281 187.9595489501953 77.59634399414063 C 189.2191162109375 83.75157165527344 189.8577575683594 90.08770751953125 189.8577575683594 96.42867279052734 C 189.8577575683594 105.2144088745117 188.2085876464844 115.2130737304688 185.0884857177734 125.3437118530273 C 183.6056518554688 130.1583099365234 181.8294525146484 134.8716430664063 179.8091583251953 139.3527069091797 C 177.7999572753906 143.8092041015625 175.5979156494141 147.9286804199219 173.2642822265625 151.5966796875 C 171.8230895996094 153.8621826171875 173.6230621337891 156.2439422607422 174.3006591796875 157.1406097412109 C 175.1321258544922 158.2408447265625 176.4104919433594 159.6605072021484 178.2088623046875 161.480712890625 C 181.4751892089844 164.7867431640625 186.1250610351563 169.0891723632813 191.5091247558594 174.0710144042969 C 205.4310150146484 186.9527435302734 224.4660491943359 204.5660095214844 232.9940643310547 217.6939239501953 C 233.2280120849609 218.5094146728516 232.9314727783203 220.5354766845703 231.1542510986328 223.2863464355469 C 228.77392578125 226.970703125 225.0431213378906 229.8568420410156 222.6607513427734 229.8568725585938 Z" stroke="none"/>
        <path d="M 96.42887878417969 5.999984741210938 C 46.56623840332031 5.999984741210938 5.999984741210938 46.56611633300781 5.999984741210938 96.42866516113281 C 5.999984741210938 146.2911987304688 46.56623840332031 186.8572998046875 96.42887878417969 186.8572998046875 C 114.757698059082 186.8572998046875 139.7634124755859 177.7051544189453 153.3501281738281 168.8566589355469 L 155.6250915527344 167.6673278808594 L 157.4063110351563 167.6673278808594 C 163.0522766113281 167.6673278808594 168.0210266113281 173.0310516357422 181.5576171875 188.5406494140625 C 193.5378112792969 202.2670593261719 209.9452667236328 221.0659790039063 222.6556549072266 226.8569488525391 C 224.9054565429688 226.7671966552734 229.6651916503906 221.3795623779297 230.0422210693359 218.6668395996094 C 221.5133361816406 205.9206848144531 203.0428466796875 188.8301696777344 189.4716949462891 176.2730102539063 C 170.9949798583984 159.1767578125 167.14990234375 155.6189880371094 170.7331237792969 149.9862670898438 C 180.3777770996094 134.8270263671875 186.8577728271484 113.303840637207 186.8577728271484 96.42866516113281 C 186.8577728271484 46.56611633300781 146.2915191650391 5.999984741210938 96.42887878417969 5.999984741210938 M 96.42887878417969 -1.52587890625e-05 C 149.68505859375 -1.52587890625e-05 192.8577728271484 43.17259216308594 192.8577728271484 96.42866516113281 C 192.8577728271484 115.3963394165039 185.4727630615234 137.996337890625 175.79541015625 153.2070159912109 C 173.6929473876953 156.5120544433594 220.5995941162109 192.841796875 235.6782379150391 216.3202972412109 C 238.2731628417969 222.0759124755859 227.2132263183594 235.4028015136719 220.5995941162109 232.4300231933594 C 195.0810546875 220.9659729003906 162.6899566650391 169.9346923828125 156.6240234375 173.884765625 C 141.8017272949219 183.5379028320313 115.8141250610352 192.8572998046875 96.42887878417969 192.8572998046875 C 43.17269897460938 192.8572998046875 -1.52587890625e-05 149.6847229003906 -1.52587890625e-05 96.42866516113281 C -1.52587890625e-05 43.17259216308594 43.17269897460938 -1.52587890625e-05 96.42887878417969 -1.52587890625e-05 Z" stroke="none" fill="#cf8662"/>
      </g>
      <g id="Ellipse_23" data-name="Ellipse 23" transform="matrix(0.996, -0.087, 0.087, 0.996, -4197.87, -18283.607)" fill="#fff" stroke="#cf8662" stroke-width="6">
        <ellipse cx="76.155" cy="76.155" rx="76.155" ry="76.155" stroke="none"/>
        <ellipse cx="76.155" cy="76.155" rx="73.155" ry="73.155" fill="none"/>
      </g>
    </g>
    <path id="Path_5009-2" data-name="Path 5009" d="M-265.35,106.066c.13-7.117,1.017-6.6-4.314-6.983-.121-2.715.732-4.509-.478-4.827a13.173,13.173,0,0,0-7.1,1.29c-2.677,1.433-2.762,2.258-3.607,4.443-1.845,4.759-1.789,12.342,9.22,10.321,3.917-.719,4.842-2.77,6.282-4.243Z" transform="translate(-4670.254 -18383.912)" fill="#cf8662" fill-rule="evenodd"/>
    <path id="Path_5010-2" data-name="Path 5010" d="M-260.851,108.742c4.129,1.052,7.378,1.079,10.883-1.078s3.238-6.262,3.137-7.549c-.085-1.388-2.407-.753-5.791-.991-.082-1.855-.03-3.938-1.464-4.6-2-.95-6.251.941-6.251.941a9.981,9.981,0,0,0-4.632,6.413c-.317,1.761-.011,5.811,4.118,6.863Z" transform="translate(-4628.02 -18383.934)" fill="#cf8662" fill-rule="evenodd"/>
    <path id="Path_5012-2" data-name="Path 5012" d="M-282.854,100.685c5.456-.425,13.324-3.364,15.1-4.592a5.9,5.9,0,0,0,.7-.465c2.206-2.148,1.683-3.338,1.832-4.925-10.2-.572-7.592,1.757-9.591,3.014-2.687,1.69-4.93.741-7.121,4.515l-.918,2.452Z" transform="translate(-4676.674 -18396.307)" fill="#cf8662" fill-rule="evenodd"/>
    <path id="Path_5013-2" data-name="Path 5013" d="M-262.2,92.969c1.7,3.607-.517,1.1,2.776,3.357,4.783,3.279,11.219,3.408,11.219,3.408a10.148,10.148,0,0,0,3.441,0,2.535,2.535,0,0,0,1.663-1.447c-7.089-1.124-12.454-6.192-12.483-6.208C-262.539,87.933-261.963,92.782-262.2,92.969Z" transform="translate(-4621.649 -18395.516)" fill="#cf8662" fill-rule="evenodd"/>
    <g id="Group_327-2" data-name="Group 327" transform="translate(182.601 68.422)">
      <path id="Path_5018-2" data-name="Path 5018" d="M.226,18.306C2.517,35,31.818,33.69,29.328,13.1,27.037-5.862-2.882-4.332.226,18.306Z" transform="matrix(0.966, 0.259, -0.259, 0.966, -5301.82, -18367.168)" fill="#fdae86" fill-rule="evenodd"/>
      <path id="Path_5017-2" data-name="Path 5017" d="M.1,8.252C1.135,15.776,14.343,15.187,13.221,5.9,12.188-2.642-1.3-1.953.1,8.252Z" transform="matrix(0.966, 0.259, -0.259, 0.966, -5244.948, -18506.09)" fill="#fdae86" fill-rule="evenodd"/>
      <path id="Path_5016-2" data-name="Path 5016" d="M6.192,2.348C1.956,5.26-2.657,8.873,1.855,17.013a11.716,11.716,0,0,0,16.761,3.7C31.233,12.141,19.154-6.56,6.192,2.348Z" transform="matrix(0.966, 0.259, -0.259, 0.966, -4971.819, -18516.688)" fill="#fdae86" fill-rule="evenodd"/>
      <path id="Path_5015-2" data-name="Path 5015" d="M3.995,1.515c-2.733,1.878-5.709,4.209-2.8,9.46a7.558,7.558,0,0,0,10.813,2.39C20.149,7.832,12.356-4.232,3.995,1.515Z" transform="matrix(0.966, 0.259, -0.259, 0.966, -4949.922, -18551.559)" fill="#fdae86" fill-rule="evenodd"/>
    </g>
    <path id="Path_5022-2" data-name="Path 5022" d="M8,0h98a4,4,0,0,1,0,8H8A4,4,0,0,1,8,0Z" transform="translate(-4999.399 -18409.578)" fill="#cf8662"/>
    <path id="Path_5021-2" data-name="Path 5021" d="M6.9,0H48.992a4,4,0,0,1,0,8H6.9a4,4,0,0,1,0-8Z" transform="translate(-4999.399 -18388.578)" fill="#cf8662"/>
    <path id="Path_5025-2" data-name="Path 5025" d="M-11.728-39.77,51.4,27.668c2.209,0,0,.111,0,2.32s-20.491-2.32-22.7-2.32l-31.979-1.16c-2.209,0-9.941-24.3-9.941-26.508S-13.937-39.77-11.728-39.77Z" transform="translate(-4855.884 -18401.578)" fill="#cf8662"/>
    <path id="Path_5023-2" data-name="Path 5023" d="M6.9,0H36.721a4,4,0,0,1,4,4c0,2.209,8.327,4,6.118,4H6.9a4,4,0,0,1,0-8Z" transform="translate(-4999.399 -18204.693)" fill="#cf8662"/>
    <ellipse id="Ellipse_18-2" data-name="Ellipse 18" cx="12" cy="6" rx="12" ry="6" transform="translate(-4925.399 -18268.578)" fill="#cf8662"/>
  </g>
</svg>
