<svg xmlns="http://www.w3.org/2000/svg" width="385.672" height="345.611" viewBox="0 0 385.672 345.611">
  <g id="Group_341" data-name="Group 341" transform="translate(4379.331 18455.863)">
    <g id="Ellipse_19" data-name="Ellipse 19" transform="translate(-4358.195 -18455.863)" fill="#fdae86" stroke="#cf8662" stroke-width="5">
      <circle cx="172.806" cy="172.806" r="172.806" stroke="none"/>
      <circle cx="172.806" cy="172.806" r="170.306" fill="none"/>
    </g>
    <g id="Rectangle_466" data-name="Rectangle 466" transform="translate(-4319.885 -18377.336)" fill="none" stroke="#cf8662" stroke-width="5">
      <rect width="271" height="110" rx="20" stroke="none"/>
      <rect x="2.5" y="2.5" width="266" height="105" rx="17.5" fill="none"/>
    </g>
    <g id="Group_330" data-name="Group 330" transform="translate(402.172 -59.397)">
      <path id="Path_5030" data-name="Path 5030" d="M-120.166,110.31a5.115,5.115,0,0,0-3.4-1.729l-35.463.165c-3.889-.326-4.243-1.026-7.26-3.184-.607-.434-3.311-2.892-4.834-8.291-.989-3.5-.989-9.5-.989-13.136,0-13.242.9-24.579,0-32.3-37.078-1.972-76.663-.035-114.088-.223-21.6-.108-15.391,4.279-15.391,53.665l-.02,160.132c-.065,9.648-.453,6.937,0,11.736s-.179,5.755,1.811,7.461a9.276,9.276,0,0,0,6.342,2.575c31.36,1.667,161.338.371,173.436-.284-.188-.552,2.584-.113,2.569-3.5-.026-5.88-.481-38.7-.56-43.988-.454-30.476-1.77-101.506-.626-124.462.156-3.127-.294-3.053-1.526-4.647Z" transform="translate(-4377.698 -18407.496)" fill="#fafafc" stroke="#cf8662" stroke-width="5" fill-rule="evenodd"/>
      <path id="Path_5027" data-name="Path 5027" d="M7.322,0H88.778a3.325,3.325,0,1,1,0,6.649H7.322A3.325,3.325,0,0,1,7.322,0Z" transform="translate(-4659.157 -18328.559)" fill="#cf8662"/>
      <path id="Path_5031" data-name="Path 5031" d="M7.322,0H88.778a3.325,3.325,0,1,1,0,6.649H7.322A3.325,3.325,0,0,1,7.322,0Z" transform="translate(-4659.157 -18254.559)" fill="#cf8662"/>
      <path id="Path_5026" data-name="Path 5026" d="M6.229,0H41.211a3.325,3.325,0,0,1,0,6.649H6.229A3.325,3.325,0,0,1,6.229,0Z" transform="translate(-4658.972 -18311.104)" fill="#cf8662"/>
      <path id="Path_5028" data-name="Path 5028" d="M-10.777-42.7l51.25,58.977c1.836,0,0,.092,0,1.929s-17.031-1.929-18.867-1.929l-26.58-.964c-1.836,0-8.263-20.2-8.263-22.032S-12.613-42.7-10.777-42.7Z" transform="translate(-4536.947 -18315.193)" fill="#cf8662"/>
      <path id="Path_5029" data-name="Path 5029" d="M6.229,0H31.012a3.325,3.325,0,0,1,3.325,3.325c0,1.836,6.921,3.325,5.085,3.325H6.229A3.325,3.325,0,0,1,6.229,0Z" transform="translate(-4658.972 -18158.268)" fill="#cf8662"/>
    </g>
    <path id="Path_4972" data-name="Path 4972" d="M354.351,286.021c3.662-2.369,5.921-17.653,5.921-17.653s6.866-39.841,7.3-41.846c1.356-6.225,9.5-44.12,11.192-50.976,1.6-6.479,5.709-32.152,7.414-40.175,1.545-7.271,6.868-26.763-2.137-33.283-.288-.209-1.162-.772-1.48-.957-7.681-4.477-40.418-2.549-49.992-2.549-15.656,0-77.522-2.546-89.054,6.773l-30.731,24.751c-.208.16-4.65,2.517-4.823,2.6l-5.03,2.444c-.216.125-.492.343-.708.469-12.54,7.275-60.018,3.968-79.606,3.994-57.273.077-74.575-7.516-72.218,23.787.374,4.973,7.349,46.414,9.511,54.3,8.723,41.867,9.614,67.818,21.279,72.156,10.226,3.8,223.6,1.151,253.3,1.236,0,0,16.2-2.7,19.858-5.067Z" transform="translate(-4399.735 -18436.398)" fill="#fefefe" stroke="#cf8662" stroke-width="5" fill-rule="evenodd"/>
    <g id="Group_338" data-name="Group 338">
      <g id="Path_5039" data-name="Path 5039" transform="translate(-4211.936 -18312)" fill="#fdae86">
        <path d="M 189.8862457275391 198.0859375 C 189.3611297607422 198.0859680175781 188.8437805175781 197.9681396484375 188.3045959472656 197.7257843017578 C 177.2156829833984 192.7441711425781 161.5829315185547 177.2902526855469 149.0218048095703 164.8728485107422 C 134.7841339111328 150.7980499267578 129.4509887695313 145.8730163574219 125.5153961181641 145.8730163574219 C 124.6805419921875 145.8730163574219 123.8888092041016 146.1012573242188 123.2257461547852 146.5330200195313 C 117.1500091552734 150.4898986816406 110.5118942260742 153.5634918212891 103.4956283569336 155.6685485839844 C 96.22233581542969 157.8507232666016 88.64656829833984 158.9571685791016 80.97877502441406 158.9571685791016 C 70.45039367675781 158.9571685791016 60.2385139465332 156.8958435058594 50.62683486938477 152.8304595947266 C 46.00692367553711 150.8764038085938 41.55077743530273 148.4576721191406 37.38218688964844 145.6414337158203 C 33.25242233276367 142.8514404296875 29.36889457702637 139.6472015380859 25.83945274353027 136.1177520751953 C 22.31001281738281 132.5883178710938 19.10577774047852 128.7047882080078 16.31577682495117 124.5750503540039 C 13.49954128265381 120.406494140625 11.08080673217773 115.9503479003906 9.126747131347656 111.330436706543 C 5.061335563659668 101.7187881469727 3.000012159347534 91.50693511962891 3.000012159347534 80.97857666015625 C 3.000012159347534 70.45022583007813 5.061335563659668 60.23837280273438 9.126747131347656 50.62672805786133 C 11.08080673217773 46.00681686401367 13.49954128265381 41.55066680908203 16.31577682495117 37.38211059570313 C 19.10577774047852 33.25237274169922 22.31001281738281 29.36884498596191 25.83945274353027 25.83940315246582 C 29.36889457702637 22.30996322631836 33.25242233276367 19.10572814941406 37.38218688964844 16.31572723388672 C 41.55077743530273 13.49949169158936 46.00692367553711 11.08075714111328 50.62683486938477 9.126697540283203 C 60.2385139465332 5.061315536499023 70.45039367675781 2.99999213218689 80.97877502441406 2.99999213218689 C 91.50715637207031 2.99999213218689 101.7190399169922 5.061315536499023 111.3307189941406 9.126697540283203 C 115.9506301879883 11.08075714111328 120.4067764282227 13.49949169158936 124.5753631591797 16.31572723388672 C 128.7050933837891 19.10572814941406 132.588623046875 22.30996322631836 136.1181030273438 25.83940315246582 C 139.6475372314453 29.36884498596191 142.8517456054688 33.25237274169922 145.6417694091797 37.38211059570313 C 148.4580078125 41.55066680908203 150.8767547607422 46.00681686401367 152.830810546875 50.62672805786133 C 156.8962249755859 60.23837280273438 158.9575347900391 70.45022583007813 158.9575347900391 80.97857666015625 C 158.9575347900391 88.5086669921875 157.8837432861328 95.947021484375 155.7660369873047 103.0869903564453 C 153.7054290771484 110.0344009399414 150.6553344726563 116.7088470458984 146.7005462646484 122.9249038696289 C 145.3117828369141 125.108024597168 147.0310974121094 127.2456665039063 147.5960998535156 127.948112487793 C 148.2657470703125 128.7807312011719 149.2416229248047 129.8031463623047 150.6672515869141 131.1657257080078 C 153.1958312988281 133.58251953125 156.8368377685547 136.7714080810547 161.0527496337891 140.4638519287109 C 168.2327728271484 146.7523193359375 177.1685485839844 154.5785217285156 185.0078582763672 162.4495239257813 C 189.2203369140625 166.6789855957031 192.7581329345703 170.570556640625 195.5230102539063 174.01611328125 C 198.6339874267578 177.8929901123047 200.8761596679688 181.3344879150391 202.1873016357422 184.2450256347656 C 202.5452728271484 185.0390472412109 202.8893127441406 186.3375854492188 201.7530670166016 188.447998046875 C 200.8454895019531 190.1337280273438 199.3617401123047 191.6888275146484 198.1284027099609 192.8805541992188 C 197.4756622314453 193.3594665527344 196.8173370361328 193.926513671875 196.1240692138672 194.5236968994141 C 194.2816314697266 196.1107330322266 191.9886627197266 198.0858764648438 189.8862457275391 198.0859375 Z" stroke="none"/>
        <path d="M 80.97877502441406 6 C 39.63533020019531 6 5.999984741210938 39.63525390625 5.999984741210938 80.97859954833984 C 5.999984741210938 122.3219146728516 39.63533020019531 155.9571533203125 80.97877502441406 155.9571533203125 C 95.55389404296875 155.9571533203125 109.5964889526367 151.8291015625 121.5889892578125 144.0188446044922 L 123.7342376708984 142.8730010986328 L 125.5153961181641 142.8730010986328 C 130.767333984375 142.8730010986328 136.1986389160156 147.9779357910156 151.130859375 162.7393188476563 C 163.520263671875 174.9869995117188 178.9393310546875 190.2296905517578 189.8863372802734 195.0859069824219 C 190.8747406005859 195.0859069824219 193.0158386230469 193.2415618896484 194.1660766601563 192.2507171630859 C 195.0428771972656 191.4954986572266 195.8579254150391 190.808837890625 195.9029541015625 190.8586578369141 C 199.7738952636719 187.1469116210938 199.5986785888672 185.8025665283203 199.4519958496094 185.4771881103516 C 193.9505462646484 173.2647247314453 172.9636535644531 154.8837280273438 159.076171875 142.7206573486328 C 144.2748718261719 129.7572326660156 140.758056640625 126.6771011352539 144.1694030761719 121.3145370483398 C 151.8812408447266 109.1931915283203 155.95751953125 95.24525451660156 155.95751953125 80.97859954833984 C 155.95751953125 39.63525390625 122.3222122192383 6 80.97877502441406 6 M 80.97877502441406 0 C 125.7021179199219 0 161.95751953125 36.25535583496094 161.95751953125 80.97859954833984 C 161.95751953125 96.9072265625 157.3585205078125 111.7616958618164 149.2316741943359 124.535285949707 C 147.4660797119141 127.3107833862305 195.3805236816406 161.8307189941406 204.9225463867188 183.0128479003906 C 207.1017456054688 187.8462524414063 202.9577026367188 192.4066619873047 200.0556182861328 195.1894073486328 C 197.0740814208984 197.2963104248047 192.6286468505859 202.9585723876953 187.0746459960938 200.4620666503906 C 165.6448059082031 190.8348541259766 129.9568786621094 145.729736328125 124.8628005981445 149.0469665527344 C 112.415397644043 157.1534729003906 97.25804901123047 161.9571533203125 80.97877502441406 161.9571533203125 C 36.25543212890625 161.9571533203125 -1.52587890625e-05 125.7018203735352 -1.52587890625e-05 80.97859954833984 C -1.52587890625e-05 36.25535583496094 36.25543212890625 0 80.97877502441406 0 Z" stroke="none" fill="#cf8662"/>
      </g>
      <g id="Ellipse_23" data-name="Ellipse 23" transform="translate(-4186.396 -18285.576)" fill="#fff" stroke="#cf8662" stroke-width="6">
        <ellipse cx="55.555" cy="55.555" rx="55.555" ry="55.555" stroke="none"/>
        <ellipse cx="55.555" cy="55.555" rx="52.555" ry="52.555" fill="none"/>
      </g>
    </g>
    <path id="Path_4983" data-name="Path 4983" d="M107.968,134.061l.734,5.788a10.14,10.14,0,0,0,.349,1.067l6.176.176.9-5.065c.774-2.913,2.113-4.064,7.717-4.993a12.48,12.48,0,0,1,7,.662c4.364,2.089,3.705,4.353,3.783,7.65s-2.749,5.063-3.474,5.537c-9.809,6.419-12.115,10.071-11.755,18.186l10.641.227,1.757-7.827c15.864-4.206,18.874-24.825,7.893-31.226-1.812-1.056-2.046-1.563-3.8-2.544a21.839,21.839,0,0,1-4.133-1.757c-3.287-1.207-9.126-.966-11.763.278a21.622,21.622,0,0,0-8.087,4.723,15.705,15.705,0,0,0-3.939,9.12Z" transform="translate(-4255.255 -18383.395)" fill="#cf8662" fill-rule="evenodd"/>
    <path id="Path_4986" data-name="Path 4986" d="M111.093,145.518l11.951.339.8-6.227c.271-1.965-.544-3.733-.988-5.547l-11.259-.449-.5,11.884Z" transform="translate(-4247.44 -18347.172)" fill="#cf8662" fill-rule="evenodd"/>
    <g id="Group_331" data-name="Group 331" transform="translate(879.029 163.798)">
      <path id="Path_5018" data-name="Path 5018" d="M.226,18.306C2.517,35,31.818,33.69,29.328,13.1,27.037-5.862-2.882-4.332.226,18.306Z" transform="matrix(0.966, 0.259, -0.259, 0.966, -5250.65, -18374.168)" fill="#fdae86" fill-rule="evenodd"/>
      <path id="Path_5017" data-name="Path 5017" d="M.1,8.252C1.135,15.776,14.343,15.187,13.221,5.9,12.188-2.642-1.3-1.953.1,8.252Z" transform="matrix(0.966, 0.259, -0.259, 0.966, -5235.012, -18542.508)" fill="#fdae86" fill-rule="evenodd"/>
      <path id="Path_5016" data-name="Path 5016" d="M6.192,2.348C1.956,5.26-2.657,8.873,1.855,17.013a11.716,11.716,0,0,0,16.761,3.7C31.233,12.141,19.154-6.56,6.192,2.348Z" transform="matrix(0.966, 0.259, -0.259, 0.966, -4895.819, -18534.303)" fill="#fdae86" fill-rule="evenodd"/>
      <path id="Path_5015" data-name="Path 5015" d="M3.995,1.515c-2.733,1.878-5.709,4.209-2.8,9.46a7.558,7.558,0,0,0,10.813,2.39C20.149,7.832,12.356-4.232,3.995,1.515Z" transform="matrix(0.966, 0.259, -0.259, 0.966, -4902.125, -18567.174)" fill="#fdae86" fill-rule="evenodd"/>
    </g>
  </g>
</svg>
