<svg xmlns="http://www.w3.org/2000/svg" width="401.366" height="342.137" viewBox="0 0 401.366 342.137">
  <g id="Group_339" data-name="Group 339" transform="translate(3620.592 18441.582)">
    <g id="Ellipse_20" data-name="Ellipse 20" transform="translate(-3573.15 -18441.582)" fill="#fdae86" stroke="#cf8662" stroke-width="5">
      <circle cx="165.044" cy="165.044" r="165.044" stroke="none"/>
      <circle cx="165.044" cy="165.044" r="162.544" fill="none"/>
    </g>
    <path id="Path_4952" data-name="Path 4952" d="M312.715,163.068c-1.026-11.752.406-4.984,10.638-10.136,5.189-2.613,19.1-5.944,27.413-4.547-.485,6.084,3.029,5.429-16.692,10.162-3.837.921-8.61.584-12.407,1.807C315.52,162.335,324.064,163.194,312.715,163.068Zm-6.2-20.836c-.464-11.852,3.021-4.265,14.52-10.167l31.477-8.051c4.257-2-2.118-1.076,5.79-2.354l32.134-6.125c8.588.546,2.862-.184,5.475,2.035-2.757,6.75-3.458,1.03-13.087,5.974-6.652,3.415-27.2,5.95-30.836,7.652-4.662,2.183,3.257.473-4.842,2.3-3.421.77-11.262,1.155-17.625,3.647l-2.957,1.6c-.26.117-.57.278-.848.388-.3.118-.63.233-.949.342Zm-25.594-25.548c-4.12.236-3.859-1.354-4.176,4.56-.38,7.091,1.762,5.69,2.567,7.342,3.991,8.194,4.036,25.2,8.814,35.562,3.917,8.5,3.5,17.921,6.281,26.2l4.722,14.7c2.131,8.358-.436,5.441,3.8,14.705,1.738,3.8,3.02,11.345,3.721,16.371a33.389,33.389,0,0,0,1.544,6.942,34.368,34.368,0,0,0,1.335,3.768l1.276,2.3c3.69,7.34,4.179,21.237,7.01,27.4,3.913,8.521,3.492,20.065,6.991,27.909l1.272,2.112c2.669,5.907,2.966,16.78,5.911,22.606.108.214.323.487.426.711,4.531,9.92.81,23.908,9.957,25.063.349,3.762,1.68,4.374,6.495,2.687.262-.092.566-.291.816-.4s.512-.341.746-.462.491-.355.723-.477l6.669-2.218c7.5-1.826,17.855-2.332,24.855-5.949,5.257-2.716,12.11-1.347,21.351-5.986,2.132-1.07.043-.461,3.886-1.812,3.1-1.091,1.846.089,4.983-1.679-6.481-2.413-15.111-2.312-21.364-3.388-6.158-1.061-4.132.446-4.582-3.882-4.161-.489-3.449-.333-5.128-2.693-1.073-1.508-.282.433-1.045-2.613-.988-3.943-.315-8.132-.183-12.188-5.977.457-8.548,1.711-13.7,2.632l-6.751,1.85c-2.169,1.033,1.134,1.621-6.892,1.738-.28-8.051-.723-7.12,12.483-8.731l11.194-3.429c4.657-2.27,5.036.858,6.37-11.332.307-2.809.234-2.878,1.051-4.877l4.611-24.984c-8.53.428-19.654,2.75-28.15,5.319-7.85,2.374-8.542,4.316-18.855,4.032.455-4.727-.754-4.2,3.339-6.062,5.623-2.561,17.124-3.513,20.628-5.273.162-.081-.418-.265,2.483-1.142a43.588,43.588,0,0,1,4.634-.8c7.372-1.174,12.594-2.431,18.121-6.917l1.041-14.4c-13.322,1.18-9.535,2.043-13.6,3.7-4.445,1.807-11.37,1.9-14.585,2.926l-5.814,2.658c-5.39,2.387-14.852,4.156-21.905,3.763l.164-4.82c2.6-1.754,10.547-3.352,14.463-3.95,6.17-.941,8.456-2.865,13.805-4.544,7.393-2.321,15.488-1.514,23.291-5.221,2.778-1.319-1.5-2.027,7.2-2.373.515-7.627,1.911-9.462,2.458-17.168-13.187,1.037-13.005,4.5-24.488,6.3-11.384,1.788-28.86,8.1-33.341,8.671-11.475,1.45-8.419.126-10.185-1.474,1.955-5.21,14.837-5.43,24.851-9.85,9.261-4.088,24.324-3.577,35.688-8.816l10.767-3.785,1.028-14.7-28.339,7.029c-7.477,1.814-22.266,3.137-29.028,6.585-4.519,2.3-12.209,4.181-20.665,3.621l.325-5.5c6.437-.559,28.828-4.618,35.3-7.82,6.018-2.976,14.256-2.435,20.576-5.592,7.186-3.59,15.18-4.457,22.9-5.433,3-10.21,1.9-17.2,3.912-27.267,1.512-7.552-.173.931,2.047-4.629,3.473-8.7,1.666-25.828,5.1-33.61.244-.552,3.791-2.4,1.952-13.789-.544-3.366-4.406-9.762-6.659-25.145a44.613,44.613,0,0,0-16.173,2.409l-2.329,1.261c-6.757,3.441-24.088,5.75-31.4,6.937-7.271,1.179-6.411,2.469-16.2,4.745L333.948,99.5c-.214.108-.482.329-.7.437-6.3,3.167-15.174,3.659-21.669,5.364l-11.846,3.262c-.208.1-.484.309-.7.405l-3.741,1.117c-3.54.743-6,1.257-8.083,1.772-6.792,1.679-5.882-.509-6.293,4.826Z" transform="translate(-3844.397 -18486.969)" fill="#fefefe" fill-rule="evenodd"/>
    <path id="Path_4953" data-name="Path 4953" d="M399.976,139.22c2.423,3.879,1.937-3.046,1.854,5.406-9.552.723-13.554-1.321-21.951-2.2-20.207-2.11-16.371-1.949-16.431-8.991,12.984-.163,22.224,2.475,34.92,3.6Zm34.116-14.586c15.128,2.336,24.144-1.387,24.6,9.114-20.629,1.637-19.064-2.236-24.515-3.25-8.662-1.612-16.752-1.731-25.72-3.335-3.431-.614-23.127-2.941-24.691-3.63-4.1-1.807,3.988-.449-5.111-2.106-7.069-1.287-11.4,1.163-10.831-8.318,3.756-.358,10.306-.447,13.968.555,6.732,1.842-1.179-.608,2.133,1.006l1.472.842c7.3,3.111,37.7,5.507,41.156,6.421C429.374,122.681,428.383,123.752,434.092,124.634Zm-61.57,214.583c-1.621-2.109-4.815-2.7-7.54-4.039l-11.609-8.2c-.187-.176-.431-.45-.618-.627s-.444-.441-.634-.62l-8.725-7.38c-.239-.266-.864-1.085-1.085-1.372l-5.546-8.153c-.219-.294-.893-1.091-1.109-1.388-3.258-4.5-1.755-4.32-6.316-10.784l-1.032-1.468c-2.529-4.055-2.99-8.945-4.323-14.213-2.871-11.349-.7-24.22-1.443-35.967-.307-3.72-.347-5.912,2.715-7.263a29.354,29.354,0,0,1,5.305-16.091l4.328-6.875c4.122-5.439,5.094-9.225,8.689-12.354l5.123-4.75a14.736,14.736,0,0,1,2.6-2.344c4.385-3.477,4.719-2.573,4.23-10.554,2.845.1,6.857.455,9.588.017,10.346-1.659-.384-1.55,12.043-5.641a30,30,0,0,1,7.331-1.406V174.7l8-.719c9.007.486,25.7-.518,34.327.789,6.943,1.053,2.179.454,5.761,2.3.24.124.553.3.8.426,7.881,3.791,3.658-.175,15.653,6.672l18.646,13.566a14.663,14.663,0,0,0,8.261,6.294c12.947-.188,21.683-.1,21.651,10.312l-15.6-.379c2.307,11.112,6.879,9.978,9.052,21.088,3.591,18.363,3.717,41.2-2.833,58.869l-5.31,9.505c-1.973,4.338.484,2.542-2.656,4.029v4.121c3.633,1.672,10.458,9.685,14.6,13.407.189.17.469.405.651.581l1.2,1.264c2.644,2.917,1,3.882,6.6,4.483.357-3.751,5.379-38.221,6.09-39.843.964-2.2,1.686-.643,2.27-8.2l3.147-25.991c1.659-6.457.248-.127,1.92-3.892l3.848-29.524c.99-7.358,2.247-17.794,4.8-23.591.954-2.165.749-1.538,1-4.686.552-6.882,1.6-16.785.859-23.33l-30-3.248c-7.8-1.445.909.327-4.694-2.024-4.5-1.887-6.468-.385-9.936-2.685l-3.562-3.965c-6.853-8.384-1.365-17.88.005-22.122.467-1.443,6.2-31.909,2.646-35.373-5.242-2.094-15.521-.284-22.756-3.441-6.014-2.624-14.088-2.964-23.66-4.071-11.087-1.282-1.371-1.549-9.767-3.132l-60.4-9.558c-3.533-.544-15.212-5.255-18.122,5.741-1.143,4.317-.326,8.556-1.783,12.121-2.462,6.028-.033-3.217-1.84,3.784-.569,2.206-.454,4.913-.688,7.231l-3.711,24.435c-1.055,4.714-1.089,14.032-2.551,17.473-1.926,4.531-.278-3.579-2.133,5.011-3.234,14.975.516,15.927-5.253,29.177-1.759,4.041-4.85,37.865-6.41,43.431-1.859,6.632.411-1.691-1.9,3.751l-3.186,17.6c-.706,4.608-.6,9.066-1,13.585-.984,11.083-1.747-.4-3.315,10.9-9.925,71.56-5.563,46.807,13.9,55.477,5.1,2.272.32,1.639,11.936,2.671,11.959,1.063,25.787,4.678,33.461,4.191Z" transform="translate(-3765.898 -18487.051)" fill="#fdfdfd" fill-rule="evenodd"/>
    <path id="Path_4961" data-name="Path 4961" d="M430.194,211.163c-.5,5.115-3.293,8.5-8.151,9.273-.945,5.8-3.366,5.4-6.867,5.758-.807,6.918-7.173,4.165-17.24,9.732-2.075,1.148-.669,1.1-3.818,1.631a90.967,90.967,0,0,1-10.947.323c-17.723-.091-10.167-.563-18.13-3.718l-9.7-3.819c-6.2-2.794-3.572.755-4.107-4.255-8.366-.782-11.9-8.749-16.693-14.393-.163-.193-.424-.451-.588-.641-3.862-4.486-2.427-2.962-4.815-9.931-3.225-9.414-8.773-17.615-4.457-33.964l4.164-10.438c2.283-6.682,3.248-5.207,3.729-11.407,5.86-.5,1.194,1.285,4.369-2.61,1.751-2.148.755-2.541,4.937-6.1L361.8,123.258c9.818-4.62,33.122-5.41,44.884,1.378l5.055,2.535c.244.139.587.283.812.437s.53.337.72.5l2.119,3.732c6.335.719,1.972.172,5.595,2.192,4.123,2.3,1.823.465,4.257,2.982,3.028,3.131.242,1.777,5.753,7.776.171.186.449.423.614.612,1.816,2.074-.136-.763,1.6,2.074l3.337,7.847c2.574,5.2,2.162-.051,3.994,11.192,1.9,11.647,1.912,13.469-.024,25.152-1.313,7.92-.454,5.429-3.139,9.622l-.955,1.447c-5.732,10.151.407,7.657-6.229,8.426Zm-57.585-96.29c-.218.177-.54.187-.658.528s-.544.413-.724.494l-10.016,2.765c-8.445,2.949-7.478,3.243-12.962,6.839l-6.959,5.487c-.839.75-.839.7-2.012,1.665-.389.319-2.061,1.665-2.079,1.681l-4.331,4.354c-.163.215-.367.518-.525.74l-6.715,11.843c-.139.223-.363.5-.5.726l-6.79,19.638c-.434,5.116-.314,14.045,1.241,17.794l1.066,2.335c1.554,4.834.16,6.539,3.921,12.445,9.671,15.187,2.7,8.876,17.067,22.619,2.836,2.713-.834.31,3.77,3.726.289.215,1.969,1.19,2.3,1.364.252.131.58.272.84.4l1.741.778c12.488,5.524,12.838,10.1,41.592,8.407,5.151-.3,8.236-1.248,12.549-2.347.929-.237,2.32-.529,3.205-.865,3.438-1.306,1.8-.836,2.558-1.315l29.435-27.616c6.866-11.062,7.344-30.625,5.825-42.692l-6.966-20.612c-.151-.208-.392-.48-.549-.681l-2.21-2.667c-.15-.211-.342-.524-.488-.74l-4.464-5.5c-6.064-5.227-4.745-5.983-9.634-9.012-1.115-.691-4.1-2.39-4.731-2.844-5.207-3.726-5.976-5.235-17.28-7.326a35.7,35.7,0,0,1-6.322-1.358c-3.424-1.3,2.22-1.2-5.85-1.9-2.7-.231-12.891-.336-14.348.843Z" transform="translate(-3740.822 -18405.229)" fill="#b6bdca" fill-rule="evenodd"/>
    <path id="Path_4963" data-name="Path 4963" d="M339.133,168.374v3.584c10.216.186,28.545,3.156,37.452,4.811,3.056.568,6.721.509,9.513,1.065,8.715,1.736-2.025,1.189,7.484,2.937l13.885,2.084c5.985-.21,2.72,1.124,3.286-1.786-1.3-6.42.724-1-3.039-4.254l-19.9-19.77c-.164-.2-.369-.506-.535-.7-1.895-2.237.162-.231-1.765-1.893l-4.042-2.312c-1.612,1.893,1.019-.88-1.9,1.34-7.136,5.433-1.9,3.8-17.012,8.843a19.845,19.845,0,0,0-2.763.995c-5.044,2.315,4.307-2.222-2.258,1.312-5.964,3.211-11.318,3.8-18.408,3.746Z" transform="translate(-3688.27 -18309.561)" fill="#f9fcfd" fill-rule="evenodd"/>
    <path id="Path_4964" data-name="Path 4964" d="M416.056,111.106c-.451-10.5-9.468-6.778-24.6-9.114-5.709-.882-4.718-1.953-7.543-2.7-3.452-.914-33.853-3.31-41.156-6.421l-1.472-.842c-3.312-1.614,4.6.837-2.133-1.006-3.661-1-10.211-.913-13.968-.555-.569,9.481,3.762,7.03,10.831,8.318,9.1,1.657,1.006.3,5.111,2.106,1.564.689,21.26,3.016,24.691,3.63,8.968,1.6,17.058,1.723,25.72,3.335C396.991,108.87,395.427,112.743,416.056,111.106Z" transform="translate(-3723.267 -18464.41)" fill="#dee1e7" fill-rule="evenodd"/>
    <path id="Path_4965" data-name="Path 4965" d="M285.247,117.7l18.251-2.762c.319-.109.649-.224.949-.342.277-.109.588-.271.848-.388l2.957-1.6c6.363-2.493,14.2-2.877,17.625-3.647,8.1-1.823.18-.113,4.842-2.3,3.636-1.7,24.184-4.237,30.836-7.652,9.629-4.944,10.33.776,13.087-5.974-2.613-2.219,3.113-1.489-5.475-2.035l-32.134,6.125c-7.908,1.277-1.533.354-5.79,2.354l-31.477,8.051C288.268,113.438,284.782,105.851,285.247,117.7Z" transform="translate(-3823.13 -18462.439)" fill="#d9dfe6" fill-rule="evenodd"/>
    <path id="Path_4966" data-name="Path 4966" d="M313.369,169.2l-.523,5.865c4.249-1.823,2.562-1.15,4.913-4.954,3.581-5.792.506-6.783,7.188-17.071,2.475-3.812,3.754-6.925,5.932-10.1,2.9-4.221.381-.505,3.481-3.9l10.032-9.942c1.434-1.5-1.2.414,2.552-2.186l4.347-3.053c2.892-2.368,2.875-2.95,10.531-5.631l6.409-2.034c13.774-4.829,10.248-3,12.067-7.621l-7.688.626a30,30,0,0,0-7.332,1.406c-12.426,4.091-1.7,3.981-12.043,5.641-2.732.438-6.743.082-9.588-.017.489,7.98.155,7.077-4.23,10.554a14.734,14.734,0,0,0-2.6,2.344l-5.123,4.75c-3.595,3.129-4.566,6.915-8.689,12.354l-4.328,6.875a29.356,29.356,0,0,0-5.305,16.091Z" transform="translate(-3754.01 -18418.504)" fill="#b9beca" fill-rule="evenodd"/>
    <path id="Path_4967" data-name="Path 4967" d="M287.188,115.309c11.349.126,2.805-.733,8.951-2.714,3.8-1.224,8.57-.886,12.407-1.807,19.721-4.733,16.207-4.078,16.692-10.162-8.312-1.4-22.224,1.934-27.413,4.547-10.232,5.152-11.664-1.616-10.638,10.136Z" transform="translate(-3818.871 -18439.209)" fill="#dce0e8" fill-rule="evenodd"/>
    <path id="Path_4968" data-name="Path 4968" d="M362.466,107.29c.083-8.452.569-1.527-1.854-5.406L359,99.7c-12.7-1.126-21.936-3.764-34.92-3.6.06,7.043-3.776,6.882,16.431,8.991C348.912,105.97,352.914,108.013,362.466,107.29Z" transform="translate(-3726.537 -18449.715)" fill="#dee1e7" fill-rule="evenodd"/>
    <path id="Path_4970" data-name="Path 4970" d="M362.092,126.223l15.6.379c.032-10.416-8.7-10.5-21.651-10.312,1.218,10.862-1.3-.72,4.03,7.553C362.1,127,359.1,125.333,362.092,126.223Z" transform="translate(-3645.988 -18399.309)" fill="#e1e3ec" fill-rule="evenodd"/>
    <g id="Group_336" data-name="Group 336" transform="matrix(0.966, -0.259, 0.259, 0.966, 5698.351, -1854.527)">
      <path id="Path_5030" data-name="Path 5030" d="M-105.643,115.917a5.49,5.49,0,0,0-3.674-1.892l-38.288.181c-4.2-.357-4.581-1.123-7.839-3.485-.655-.475-3.575-3.165-5.219-9.074-1.068-3.834-1.068-10.4-1.068-14.377,0-14.493.974-26.9,0-35.346-40.033-2.158-82.772-.038-123.179-.244-23.325-.118-16.617,4.683-16.617,58.734l-.021,175.256c-.07,10.56-.489,7.592,0,12.845s-.193,6.3,1.956,8.166a9.945,9.945,0,0,0,6.848,2.818c33.859,1.824,174.195.406,187.257-.311-.2-.6,2.79-.123,2.774-3.826-.028-6.435-.519-42.351-.6-48.142-.49-33.355-1.911-111.093-.676-136.217.168-3.423-.317-3.342-1.648-5.086Z" transform="translate(-4377.698 -18407.355)" fill="#fafafc" stroke="#cf8662" stroke-width="5" fill-rule="evenodd"/>
      <path id="Path_5027" data-name="Path 5027" d="M7.454,0h84.7a3.57,3.57,0,0,1,3.457,3.673,3.57,3.57,0,0,1-3.457,3.673H7.454A3.57,3.57,0,0,1,4,3.673,3.57,3.57,0,0,1,7.454,0Z" transform="translate(-4656.542 -18325.486)" fill="#cf8662"/>
      <path id="Path_5031" data-name="Path 5031" d="M7.67,0H97.66a3.673,3.673,0,1,1,0,7.346H7.67A3.673,3.673,0,0,1,7.67,0Z" transform="translate(-4658.261 -18253.861)" fill="#cf8662"/>
      <path id="Path_5034" data-name="Path 5034" d="M7.67,0H97.66a3.673,3.673,0,1,1,0,7.346H7.67A3.673,3.673,0,0,1,7.67,0Z" transform="translate(-4657.194 -18230.799)" fill="#cf8662"/>
      <path id="Path_5035" data-name="Path 5035" d="M7.67,0H97.66a3.673,3.673,0,1,1,0,7.346H7.67A3.673,3.673,0,0,1,7.67,0Z" transform="translate(-4658.058 -18208.254)" fill="#cf8662"/>
      <path id="Path_5036" data-name="Path 5036" d="M7.67,0H97.66a3.673,3.673,0,1,1,0,7.346H7.67A3.673,3.673,0,0,1,7.67,0Z" transform="translate(-4657.698 -18186.416)" fill="#cf8662"/>
      <path id="Path_5026" data-name="Path 5026" d="M6.1,0H39.69a3.458,3.458,0,0,1,3.193,3.673A3.458,3.458,0,0,1,39.69,7.346H6.1A3.458,3.458,0,0,1,2.9,3.673,3.458,3.458,0,0,1,6.1,0Z" transform="translate(-4655.297 -18303.279)" fill="#cf8662"/>
      <path id="Path_5028" data-name="Path 5028" d="M-10.52-42.7,46.1,22.461c2.029,0,0,.1,0,2.131s-18.816-2.131-20.844-2.131L-4.109,21.4c-2.029,0-9.129-22.312-9.129-24.341S-12.548-42.7-10.52-42.7Z" transform="translate(-4527.974 -18315.193)" fill="#cf8662"/>
      <path id="Path_5029" data-name="Path 5029" d="M6.578,0H33.956a3.673,3.673,0,0,1,3.673,3.673c0,2.029,7.646,3.673,5.618,3.673H6.578A3.673,3.673,0,0,1,6.578,0Z" transform="translate(-4656.452 -18139.803)" fill="#cf8662"/>
    </g>
    <g id="Group_335" data-name="Group 335" transform="matrix(0.985, 0.174, -0.174, 0.985, -1997.317, 478.498)">
      <path id="Path_5030-2" data-name="Path 5030" d="M-105.643,115.917a5.49,5.49,0,0,0-3.674-1.892l-38.288.181c-4.2-.357-4.581-1.123-7.839-3.485-.655-.475-3.575-3.165-5.219-9.074-1.068-3.834-1.068-10.4-1.068-14.377,0-13.928.9-25.929.076-34.639,0-.043-.038-.378-.076-.707-40.033-2.158-82.772-.038-123.179-.244-23.325-.118-16.617,4.683-16.617,58.734l-.021,175.256c-.07,10.56-.489,7.592,0,12.845s-.193,6.3,1.956,8.166a9.945,9.945,0,0,0,6.848,2.818c33.859,1.824,174.195.406,187.257-.311-.2-.6,2.79-.123,2.774-3.826-.028-6.435-.519-42.351-.6-48.142-.49-33.355-1.911-111.093-.676-136.217.168-3.423-.317-3.342-1.648-5.086Z" transform="translate(-4377.698 -18407.355)" fill="#fafafc" stroke="#cf8662" stroke-width="5" fill-rule="evenodd"/>
      <path id="Path_5027-2" data-name="Path 5027" d="M7.67,0H97.66a3.673,3.673,0,1,1,0,7.346H7.67A3.673,3.673,0,0,1,7.67,0Z" transform="translate(-4656.542 -18325.486)" fill="#cf8662"/>
      <path id="Path_5031-2" data-name="Path 5031" d="M9.748,0h140.9c3.176,0,5.751,1.712,5.751,3.823s-2.575,3.823-5.751,3.823H9.748C6.572,7.647,4,5.935,4,3.823S6.572,0,9.748,0Z" transform="translate(-4660.528 -18244.975)" fill="#cf8662"/>
      <path id="Path_5026-2" data-name="Path 5026" d="M6.578,0H45.224a3.673,3.673,0,0,1,0,7.346H6.578A3.673,3.673,0,0,1,6.578,0Z" transform="translate(-4656.452 -18306.695)" fill="#cf8662"/>
      <path id="Path_5028-2" data-name="Path 5028" d="M-9.248-42.713,46.1,22.461c2.029,0,0,.1,0,2.131s-18.816-2.131-20.844-2.131L-4.109,21.4c-2.029,0-9.129-22.312-9.129-24.341S-11.277-42.713-9.248-42.713Z" transform="translate(-4527.974 -18315.193)" fill="#cf8662"/>
      <path id="Path_5029-2" data-name="Path 5029" d="M6.578,0H33.956a3.673,3.673,0,0,1,3.673,3.673c0,2.029,7.646,3.673,5.618,3.673H6.578A3.673,3.673,0,0,1,6.578,0Z" transform="translate(-4656.452 -18139.803)" fill="#cf8662"/>
    </g>
    <g id="Path_5038" data-name="Path 5038" transform="translate(-3443.68 -18313)" fill="#fdae86">
      <path d="M 201.6604919433594 210.5551147460938 C 201.0759887695313 210.5551452636719 200.5016021728516 210.4246673583984 199.9045257568359 210.1563110351563 C 188.0973663330078 204.8519897460938 171.4820556640625 188.4267272949219 158.1314086914063 175.2287902832031 C 152.8473663330078 170.0052032470703 147.8563995361328 165.0713195800781 143.8567504882813 161.5244293212891 C 138.6471405029297 156.9044952392578 135.6867828369141 155.1045532226563 133.2982025146484 155.1045532226563 C 132.4477233886719 155.1045532226563 131.6419830322266 155.3364868164063 130.9680786132813 155.7753143310547 C 124.5007247924805 159.9872283935547 117.4348449707031 163.2589416503906 109.9665222167969 165.4996185302734 C 102.2248687744141 167.8222808837891 94.16136932373047 169 85.99999237060547 169 C 80.3665771484375 169 74.73760986328125 168.4326477050781 69.26943206787109 167.3136749267578 C 63.94172668457031 166.2234954833984 58.70125579833984 164.5967559814453 53.69357681274414 162.4786682128906 C 48.77613830566406 160.3987579345703 44.03302001953125 157.8242645263672 39.59598922729492 154.8266754150391 C 35.20037078857422 151.8570556640625 31.06681442260742 148.4465179443359 27.31013679504395 144.6898498535156 C 23.5534610748291 140.9331970214844 20.1429615020752 136.7996368408203 17.17331314086914 132.4039916992188 C 14.17572593688965 127.9669647216797 11.60122585296631 123.223876953125 9.521313667297363 118.3064346313477 C 7.403225421905518 113.2987289428711 5.776490211486816 108.0582580566406 4.686313629150391 102.730583190918 C 3.56734299659729 97.26237487792969 2.999990224838257 91.63340759277344 2.999990224838257 85.99999237060547 C 2.999990224838257 80.36658477783203 3.56734299659729 74.73760986328125 4.686313629150391 69.26943206787109 C 5.776490211486816 63.94173049926758 7.403225421905518 58.70125961303711 9.521313667297363 53.69358062744141 C 11.60122585296631 48.77614212036133 14.17572593688965 44.03302383422852 17.17331314086914 39.59599304199219 C 20.1429615020752 35.20037460327148 23.5534610748291 31.06681632995605 27.31013679504395 27.31014060974121 C 31.06681442260742 23.55346298217773 35.20037078857422 20.14296340942383 39.59598922729492 17.17331695556641 C 44.03302001953125 14.1757287979126 48.77613830566406 11.60122871398926 53.69357681274414 9.521316528320313 C 58.70125579833984 7.403228759765625 63.94172668457031 5.776493549346924 69.26943206787109 4.686316967010498 C 74.73760986328125 3.567346334457397 80.3665771484375 2.999993324279785 85.99999237060547 2.999993324279785 C 91.63339996337891 2.999993324279785 97.26237487792969 3.567346334457397 102.7305755615234 4.686316967010498 C 108.0582580566406 5.776493549346924 113.2987289428711 7.403228759765625 118.3064346313477 9.521316528320313 C 123.2238693237305 11.60122871398926 127.9669570922852 14.1757287979126 132.4039916992188 17.17331695556641 C 136.7996368408203 20.14296340942383 140.9331970214844 23.55346298217773 144.6898498535156 27.31014060974121 C 148.4465179443359 31.06681632995605 151.8570556640625 35.20037460327148 154.82666015625 39.59599304199219 C 157.8242492675781 44.03302383422852 160.3987579345703 48.77614212036133 162.4786682128906 53.69358062744141 C 164.5967559814453 58.70125961303711 166.2234954833984 63.94173049926758 167.3136596679688 69.26943206787109 C 168.4326324462891 74.73760986328125 168.9999847412109 80.36658477783203 168.9999847412109 85.99999237060547 C 168.9999847412109 94.01493072509766 167.8570556640625 101.9323425292969 165.6029052734375 109.5322265625 C 163.4096069335938 116.9270248413086 160.1632232666016 124.0311431884766 155.9539031982422 130.6472320556641 C 154.5506439208984 132.8531951904297 156.3136444091797 135.045166015625 156.8929901123047 135.7654876708984 C 157.5989532470703 136.6432342529297 158.6301422119141 137.7233734130859 160.1381683349609 139.1647338867188 C 162.8206024169922 141.7285766601563 166.6859588623047 145.1139984130859 171.1616668701172 149.0339660644531 C 178.7890167236328 155.7142333984375 188.2815246582031 164.028076171875 196.6114349365234 172.3916473388672 C 201.0897521972656 176.8880462646484 204.8513946533203 181.0259094238281 207.7918395996094 184.6903228759766 C 211.1055450439453 188.81982421875 213.4950256347656 192.4882049560547 214.8939056396484 195.5935211181641 C 215.2902526855469 196.4726715087891 215.6726379394531 197.9078979492188 214.4269256591797 200.2216949462891 C 213.4488220214844 202.0384368896484 211.8553161621094 203.7072143554688 210.5338745117188 204.9834899902344 C 209.8431091308594 205.4894256591797 209.1435089111328 206.092041015625 208.4065246582031 206.7268981933594 C 206.3233947753906 208.5212554931641 203.9623413085938 210.5550231933594 201.6604919433594 210.5551147460938 Z" stroke="none"/>
      <path d="M 85.99998474121094 6 C 41.88786315917969 6 5.999984741210938 41.88786315917969 5.999984741210938 86 C 5.999984741210938 130.1121368408203 41.88786315917969 166 85.99998474121094 166 C 101.551155090332 166 116.5346603393555 161.5950927734375 129.3311157226563 153.2612609863281 L 131.5169219970703 152.1045379638672 L 133.2981872558594 152.1045379638672 C 138.7303161621094 152.1045379638672 144.4630889892578 157.4983978271484 160.2404174804688 173.0952758789063 C 173.4193878173828 186.1234741210938 189.8210601806641 202.3374938964844 201.6605987548828 207.5550994873047 C 202.8484191894531 207.5550994873047 205.0149536132813 205.6888732910156 206.4485931396484 204.4539337158203 C 207.3696594238281 203.6605072021484 208.2256317138672 202.9387054443359 208.3077545166016 202.9622344970703 C 212.3276977539063 199.1075744628906 212.4463958740234 197.4640350341797 212.1585998535156 196.8256683349609 C 206.2828216552734 183.7821350097656 183.9579162597656 164.2292633056641 169.1850891113281 151.2907409667969 C 153.2809600830078 137.3613586425781 149.9712524414063 134.4626312255859 153.4227600097656 129.036865234375 C 161.6508636474609 116.1041030883789 166 101.2221984863281 166 86 C 166 41.88786315917969 130.1121215820313 6 85.99998474121094 6 M 85.99998474121094 0 C 133.4964904785156 0 172 38.50349426269531 172 86 C 172 102.9163360595703 167.1158294677734 118.6919326782227 158.4850616455078 132.2575988769531 C 156.6099853515625 135.2052001953125 207.4954528808594 171.8657379150391 217.6291656494141 194.361328125 C 219.9434661865234 199.4944763183594 215.5424652099609 204.3376617431641 212.4604644775391 207.29296875 C 209.2940216064453 209.5305023193359 204.5729217529297 215.5438690185547 198.674560546875 212.8925628662109 C 175.9158935546875 202.6683654785156 138.0152282714844 154.7663726806641 132.6051330566406 158.2892761230469 C 119.3859252929688 166.8984375 103.2887268066406 172 85.99998474121094 172 C 38.50349426269531 172 -1.52587890625e-05 133.4964904785156 -1.52587890625e-05 86 C -1.52587890625e-05 38.50349426269531 38.50349426269531 0 85.99998474121094 0 Z" stroke="none" fill="#cf8662"/>
    </g>
    <g id="Ellipse_22" data-name="Ellipse 22" transform="translate(-3416.68 -18286)" fill="#fff" stroke="#cf8662" stroke-width="6">
      <circle cx="59" cy="59" r="59" stroke="none"/>
      <circle cx="59" cy="59" r="56" fill="none"/>
    </g>
    <path id="Path_5032" data-name="Path 5032" d="M107.968,136.409l.885,6.7a11.411,11.411,0,0,0,.42,1.235l7.438.2,1.088-5.862c.932-3.371,2.545-4.7,9.295-5.779a15.6,15.6,0,0,1,8.431.766c5.257,2.418,4.463,5.039,4.556,8.854s-3.311,5.86-4.184,6.408c-11.814,7.43-14.592,11.656-14.158,21.048l12.817.262,2.116-9.059c19.107-4.868,22.732-28.733,9.507-36.141-2.182-1.222-2.465-1.809-4.579-2.944a26.929,26.929,0,0,1-4.978-2.034c-3.958-1.4-10.992-1.118-14.168.322a26.366,26.366,0,0,0-9.74,5.467,17.82,17.82,0,0,0-4.745,10.555Z" transform="translate(-3485.842 -18379.76)" fill="#cf8662" fill-rule="evenodd"/>
    <path id="Path_5033" data-name="Path 5033" d="M111.093,147.389l14.395.392.958-7.207c.327-2.275-.655-4.32-1.19-6.42l-13.56-.52-.6,13.754Z" transform="translate(-3475.79 -18335.555)" fill="#cf8662" fill-rule="evenodd"/>
    <g id="Group_337" data-name="Group 337" transform="translate(1644.769 128.249)">
      <path id="Path_5018" data-name="Path 5018" d="M.226,18.306C2.517,35,31.818,33.69,29.328,13.1,27.037-5.862-2.882-4.332.226,18.306Z" transform="matrix(0.966, 0.259, -0.259, 0.966, -5257.65, -18387.168)" fill="#fdae86" fill-rule="evenodd"/>
      <path id="Path_5017" data-name="Path 5017" d="M.1,8.252C1.135,15.776,14.343,15.187,13.221,5.9,12.188-2.642-1.3-1.953.1,8.252Z" transform="matrix(0.966, 0.259, -0.259, 0.966, -5213.012, -18525.508)" fill="#fdae86" fill-rule="evenodd"/>
      <path id="Path_5016" data-name="Path 5016" d="M6.192,2.348C1.956,5.26-2.657,8.873,1.855,17.013a11.716,11.716,0,0,0,16.761,3.7C31.233,12.141,19.154-6.56,6.192,2.348Z" transform="matrix(0.966, 0.259, -0.259, 0.966, -4919.697, -18539.613)" fill="#fdae86" fill-rule="evenodd"/>
      <path id="Path_5015" data-name="Path 5015" d="M3.995,1.515c-2.733,1.878-5.709,4.209-2.8,9.46a7.558,7.558,0,0,0,10.813,2.39C20.149,7.832,12.356-4.232,3.995,1.515Z" transform="matrix(0.966, 0.259, -0.259, 0.966, -4902.125, -18567.174)" fill="#fdae86" fill-rule="evenodd"/>
    </g>
  </g>
</svg>
